<svg width="304" height="433" viewBox="0 0 304 433" fill="none" xmlns="http://www.w3.org/2000/svg">
<mask id="mask0_1_20294" style="mask-type:alpha" maskUnits="userSpaceOnUse" x="-61" y="-92" width="426" height="525">
<rect x="-60.5" y="-91.9155" width="425" height="524" fill="url(#paint0_linear_1_20294)"/>
</mask>
<g mask="url(#mask0_1_20294)">
</g>
<g opacity="0.4">
<path d="M162.531 19.6185C162.532 18.9465 162.799 18.3021 163.274 17.827C163.749 17.3518 164.393 17.0848 165.065 17.0845H173.934C174.273 17.075 174.61 17.1335 174.926 17.2565C175.242 17.3796 175.53 17.5647 175.773 17.801C176.016 18.0372 176.209 18.3198 176.341 18.632C176.472 18.9442 176.54 19.2796 176.54 19.6185C176.54 19.9574 176.472 20.2928 176.341 20.605C176.209 20.9172 176.016 21.1998 175.773 21.436C175.53 21.6723 175.242 21.8574 174.926 21.9804C174.61 22.1035 174.273 22.162 173.934 22.1525H165.065C164.393 22.1525 163.749 21.8855 163.273 21.4103C162.798 20.9351 162.531 20.2906 162.531 19.6185Z" stroke="url(#paint1_linear_1_20294)" stroke-width="18"/>
<path d="M140.992 313.565C140.992 314.965 139.858 316.1 138.458 316.1H129.589C128.917 316.1 128.272 315.833 127.797 315.358C127.322 314.883 127.055 314.238 127.055 313.566C127.055 312.894 127.322 312.249 127.797 311.774C128.272 311.298 128.917 311.031 129.589 311.031H138.458C139.858 311.031 140.992 312.166 140.992 313.565Z" stroke="url(#paint2_linear_1_20294)" stroke-width="18"/>
<path d="M151.128 29.7547C151.128 29.0827 151.395 28.4383 151.87 27.9632C152.346 27.488 152.99 27.221 153.662 27.2207H184.071C184.731 27.2392 185.357 27.5143 185.817 27.9875C186.277 28.4607 186.535 29.0947 186.535 29.7547C186.535 30.4147 186.277 31.0487 185.817 31.5219C185.357 31.9951 184.731 32.2702 184.071 32.2887H153.662C152.99 32.2887 152.345 32.0217 151.87 31.5465C151.395 31.0713 151.128 30.4268 151.128 29.7547Z" stroke="url(#paint3_linear_1_20294)" stroke-width="18"/>
<path d="M152.395 303.43C152.395 304.83 151.261 305.964 149.861 305.964H119.453C118.781 305.964 118.136 305.697 117.661 305.221C117.186 304.746 116.919 304.102 116.919 303.43C116.919 302.757 117.186 302.113 117.661 301.638C118.136 301.162 118.781 300.896 119.453 300.896H149.861C151.261 300.896 152.395 302.031 152.395 303.43Z" stroke="url(#paint4_linear_1_20294)" stroke-width="18"/>
<path d="M143.526 39.8904C143.526 39.2185 143.793 38.5741 144.268 38.0989C144.744 37.6238 145.388 37.3567 146.06 37.3564H184.071C184.731 37.375 185.357 37.6501 185.817 38.1233C186.277 38.5965 186.535 39.2304 186.535 39.8904C186.535 40.5504 186.277 41.1844 185.817 41.6576C185.357 42.1308 184.731 42.4059 184.071 42.4244H146.06C145.388 42.4244 144.743 42.1575 144.268 41.6823C143.793 41.207 143.526 40.5625 143.526 39.8904Z" stroke="url(#paint5_linear_1_20294)" stroke-width="18"/>
<path d="M159.997 293.293C159.997 294.693 158.863 295.827 157.463 295.827H119.453C118.781 295.827 118.136 295.56 117.661 295.085C117.186 294.61 116.919 293.965 116.919 293.293C116.919 292.621 117.186 291.977 117.661 291.501C118.136 291.026 118.781 290.759 119.453 290.759H157.463C158.863 290.759 159.997 291.894 159.997 293.293Z" stroke="url(#paint6_linear_1_20294)" stroke-width="18"/>
<path d="M135.924 50.0267C135.924 49.3547 136.191 48.7103 136.666 48.2352C137.141 47.76 137.786 47.4929 138.458 47.4927H184.071C184.731 47.5112 185.357 47.7863 185.817 48.2595C186.277 48.7327 186.535 49.3667 186.535 50.0267C186.535 50.6867 186.277 51.3206 185.817 51.7938C185.357 52.267 184.731 52.5421 184.071 52.5607H138.458C137.786 52.5607 137.141 52.2937 136.666 51.8185C136.191 51.3433 135.924 50.6987 135.924 50.0267Z" stroke="url(#paint7_linear_1_20294)" stroke-width="18"/>
<path d="M167.599 283.158C167.599 284.558 166.465 285.692 165.065 285.692H119.453C118.781 285.692 118.136 285.425 117.661 284.949C117.186 284.474 116.919 283.83 116.919 283.158C116.919 282.485 117.186 281.841 117.661 281.366C118.136 280.891 118.781 280.624 119.453 280.624H165.065C166.465 280.624 167.599 281.759 167.599 283.158Z" stroke="url(#paint8_linear_1_20294)" stroke-width="18"/>
<path d="M128.322 60.1634C128.322 58.7634 129.456 57.6284 130.856 57.6284H184.071C184.734 57.6416 185.366 57.9144 185.831 58.3883C186.295 58.8622 186.555 59.4993 186.555 60.1629C186.555 60.8265 186.295 61.4637 185.831 61.9375C185.366 62.4114 184.734 62.6842 184.071 62.6974H130.856C130.184 62.6974 129.539 62.4304 129.064 61.9552C128.589 61.48 128.322 60.8355 128.322 60.1634Z" stroke="url(#paint9_linear_1_20294)" stroke-width="18"/>
<path d="M175.202 273.021C175.202 274.421 174.067 275.555 172.667 275.555H119.453C118.781 275.555 118.136 275.288 117.661 274.813C117.186 274.338 116.919 273.693 116.919 273.021C116.919 272.349 117.186 271.705 117.661 271.229C118.136 270.754 118.781 270.487 119.453 270.487H172.667C174.067 270.487 175.202 271.622 175.202 273.021Z" stroke="url(#paint10_linear_1_20294)" stroke-width="18"/>
<path d="M120.72 70.2996C120.72 68.8996 121.854 67.7656 123.254 67.7656H184.071C184.743 67.7656 185.388 68.0326 185.863 68.5078C186.338 68.983 186.605 69.6276 186.605 70.2996C186.605 70.9717 186.338 71.6162 185.863 72.0914C185.388 72.5666 184.743 72.8336 184.071 72.8336H123.254C122.582 72.8336 121.938 72.5666 121.462 72.0914C120.987 71.6162 120.72 70.9717 120.72 70.2996Z" stroke="url(#paint11_linear_1_20294)" stroke-width="18"/>
<path d="M182.804 262.886C182.804 263.558 182.537 264.202 182.061 264.677C181.586 265.152 180.942 265.419 180.27 265.42H119.453C118.781 265.42 118.136 265.153 117.661 264.677C117.186 264.202 116.919 263.558 116.919 262.886C116.919 262.214 117.186 261.569 117.661 261.094C118.136 260.619 118.781 260.352 119.453 260.352H180.27C180.942 260.352 181.587 260.619 182.062 261.094C182.537 261.569 182.804 262.214 182.804 262.886Z" stroke="url(#paint12_linear_1_20294)" stroke-width="18"/>
<path d="M111.851 80.4354C111.851 79.0354 112.985 77.9014 114.385 77.9014H184.071C184.743 77.9014 185.388 78.1683 185.863 78.6436C186.338 79.1188 186.605 79.7633 186.605 80.4354C186.605 81.1074 186.338 81.752 185.863 82.2272C185.388 82.7024 184.743 82.9694 184.071 82.9694H114.385C113.713 82.9694 113.068 82.7024 112.593 82.2272C112.118 81.752 111.851 81.1074 111.851 80.4354Z" stroke="url(#paint13_linear_1_20294)" stroke-width="18"/>
<path d="M191.673 252.749C191.673 253.421 191.406 254.066 190.93 254.541C190.455 255.016 189.811 255.283 189.139 255.283H119.453C118.781 255.283 118.136 255.016 117.661 254.541C117.186 254.066 116.919 253.421 116.919 252.749C116.919 252.077 117.186 251.433 117.661 250.958C118.136 250.482 118.781 250.215 119.453 250.215H189.139C189.811 250.215 190.456 250.482 190.931 250.958C191.406 251.433 191.673 252.077 191.673 252.749Z" stroke="url(#paint14_linear_1_20294)" stroke-width="18"/>
<path d="M104.249 90.5716C104.249 89.1716 105.383 88.0376 106.783 88.0376H184.071C184.743 88.0376 185.388 88.3046 185.863 88.7798C186.338 89.255 186.605 89.8995 186.605 90.5716C186.605 91.2437 186.338 91.8882 185.863 92.3634C185.388 92.8386 184.743 93.1056 184.071 93.1056H106.783C106.111 93.1056 105.466 92.8386 104.991 92.3634C104.516 91.8882 104.249 91.2437 104.249 90.5716Z" stroke="url(#paint15_linear_1_20294)" stroke-width="18"/>
<path d="M199.275 242.614C199.275 243.286 199.008 243.93 198.532 244.405C198.057 244.88 197.413 245.147 196.741 245.148H119.453C118.781 245.148 118.136 244.881 117.661 244.405C117.186 243.93 116.919 243.286 116.919 242.614C116.919 241.942 117.186 241.297 117.661 240.822C118.136 240.347 118.781 240.08 119.453 240.08H196.741C197.413 240.08 198.058 240.347 198.533 240.822C199.008 241.297 199.275 241.942 199.275 242.614Z" stroke="url(#paint16_linear_1_20294)" stroke-width="18"/>
<path d="M96.647 100.707C96.647 99.3073 97.781 98.1733 99.181 98.1733H184.071C184.743 98.1733 185.388 98.4403 185.863 98.9155C186.338 99.3907 186.605 100.035 186.605 100.707C186.605 101.379 186.338 102.024 185.863 102.499C185.388 102.974 184.743 103.241 184.071 103.241H99.181C98.5089 103.241 97.8644 102.974 97.3892 102.499C96.9139 102.024 96.647 101.379 96.647 100.707Z" stroke="url(#paint17_linear_1_20294)" stroke-width="18"/>
<path d="M206.877 232.477C206.877 233.149 206.61 233.794 206.134 234.269C205.659 234.744 205.015 235.011 204.343 235.011H119.453C118.781 235.011 118.136 234.744 117.661 234.269C117.185 233.794 116.918 233.149 116.918 232.477C116.918 231.805 117.185 231.16 117.661 230.685C118.136 230.209 118.781 229.942 119.453 229.942H204.343C205.015 229.943 205.66 230.21 206.135 230.685C206.61 231.161 206.877 231.805 206.877 232.477Z" stroke="url(#paint18_linear_1_20294)" stroke-width="18"/>
<path d="M89.0439 110.844C89.0442 110.171 89.3114 109.527 89.7868 109.052C90.2621 108.577 90.9068 108.31 91.5789 108.31H184.071C184.731 108.328 185.357 108.603 185.817 109.076C186.277 109.55 186.535 110.184 186.535 110.844C186.535 111.504 186.277 112.138 185.817 112.611C185.357 113.084 184.731 113.359 184.071 113.378H91.5789C91.2461 113.378 90.9165 113.312 90.6089 113.185C90.3014 113.058 90.0219 112.871 89.7865 112.636C89.5511 112.4 89.3643 112.121 89.2369 111.814C89.1095 111.506 89.0439 111.176 89.0439 110.844Z" stroke="url(#paint19_linear_1_20294)" stroke-width="18"/>
<path d="M214.479 222.341C214.479 223.741 213.344 224.875 211.945 224.875H119.453C118.781 224.875 118.136 224.608 117.661 224.132C117.186 223.657 116.919 223.013 116.919 222.341C116.919 221.669 117.186 221.024 117.661 220.549C118.136 220.074 118.781 219.807 119.453 219.807H211.945C212.617 219.807 213.261 220.074 213.736 220.549C214.212 221.024 214.479 221.669 214.479 222.341Z" stroke="url(#paint20_linear_1_20294)" stroke-width="18"/>
<path d="M81.4419 120.979C81.4422 120.307 81.7092 119.663 82.1844 119.188C82.6595 118.713 83.3039 118.446 83.9759 118.445H184.071C184.731 118.464 185.357 118.739 185.817 119.212C186.277 119.685 186.535 120.319 186.535 120.979C186.535 121.639 186.277 122.273 185.817 122.746C185.357 123.22 184.731 123.495 184.071 123.513H83.9759C83.3038 123.513 82.6593 123.246 82.1841 122.771C81.7089 122.296 81.4419 121.651 81.4419 120.979Z" stroke="url(#paint21_linear_1_20294)" stroke-width="18"/>
<path d="M222.081 212.204C222.081 213.604 220.947 214.738 219.547 214.738H119.453C118.781 214.738 118.136 214.471 117.661 213.996C117.186 213.521 116.919 212.876 116.919 212.204C116.919 211.532 117.186 210.888 117.661 210.413C118.136 209.937 118.781 209.67 119.453 209.67H219.547C220.947 209.67 222.081 210.805 222.081 212.204Z" stroke="url(#paint22_linear_1_20294)" stroke-width="18"/>
<path d="M73.8398 131.116C73.8401 130.444 74.1072 129.799 74.5823 129.324C75.0575 128.849 75.7019 128.582 76.3738 128.582H184.071C184.731 128.6 185.357 128.875 185.817 129.348C186.277 129.822 186.535 130.456 186.535 131.116C186.535 131.776 186.277 132.41 185.817 132.883C185.357 133.356 184.731 133.631 184.071 133.65H76.3738C75.7018 133.65 75.0572 133.383 74.582 132.907C74.1068 132.432 73.8398 131.788 73.8398 131.116Z" stroke="url(#paint23_linear_1_20294)" stroke-width="18"/>
<path d="M229.683 202.069C229.683 203.469 228.549 204.603 227.149 204.603H119.453C118.781 204.603 118.136 204.336 117.661 203.86C117.186 203.385 116.919 202.741 116.919 202.069C116.919 201.397 117.186 200.752 117.661 200.277C118.136 199.802 118.781 199.535 119.453 199.535H227.149C228.549 199.535 229.683 200.67 229.683 202.069Z" stroke="url(#paint24_linear_1_20294)" stroke-width="18"/>
<path d="M66.2378 141.251C66.2381 140.579 66.5051 139.935 66.9803 139.46C67.4554 138.985 68.0998 138.718 68.7718 138.717H184.071C184.734 138.73 185.366 139.003 185.831 139.477C186.295 139.951 186.555 140.588 186.555 141.252C186.555 141.915 186.295 142.553 185.831 143.026C185.366 143.5 184.734 143.773 184.071 143.786H68.7718C68.0996 143.786 67.4551 143.519 66.9799 143.043C66.5047 142.568 66.2378 141.923 66.2378 141.251Z" stroke="url(#paint25_linear_1_20294)" stroke-width="18"/>
<path d="M237.285 191.932C237.285 193.332 236.151 194.466 234.751 194.466H119.453C119.12 194.466 118.791 194.401 118.483 194.274C118.176 194.146 117.896 193.96 117.661 193.724C117.426 193.489 117.239 193.21 117.112 192.902C116.984 192.595 116.919 192.265 116.919 191.932C116.919 191.6 116.984 191.27 117.112 190.963C117.239 190.655 117.426 190.376 117.661 190.141C117.896 189.905 118.176 189.719 118.483 189.591C118.791 189.464 119.12 189.398 119.453 189.398H234.751C236.151 189.398 237.285 190.533 237.285 191.932Z" stroke="url(#paint26_linear_1_20294)" stroke-width="18"/>
<path d="M58.6362 151.388C58.6362 149.988 59.7712 148.854 61.1702 148.854H251.222C251.894 148.854 252.539 149.121 253.014 149.597C253.489 150.072 253.756 150.716 253.756 151.388C253.756 152.061 253.489 152.705 253.014 153.18C252.539 153.656 251.894 153.922 251.222 153.922H61.1702C60.4982 153.922 59.8539 153.655 59.3787 153.18C58.9036 152.705 58.6365 152.06 58.6362 151.388Z" stroke="url(#paint27_linear_1_20294)" stroke-width="18"/>
<path d="M51.0342 161.525C51.0342 160.125 52.1692 158.991 53.5682 158.991H252.489C253.161 158.991 253.806 159.258 254.281 159.733C254.756 160.208 255.023 160.853 255.023 161.525C255.023 162.197 254.756 162.841 254.281 163.317C253.806 163.792 253.161 164.059 252.489 164.059H53.5682C52.8962 164.058 52.2518 163.791 51.7767 163.316C51.3015 162.841 51.0344 162.197 51.0342 161.525Z" stroke="url(#paint28_linear_1_20294)" stroke-width="18"/>
<path d="M48.5 171.66C48.5 170.26 49.635 169.126 51.034 169.126H246.154C246.826 169.126 247.471 169.393 247.946 169.869C248.421 170.344 248.688 170.988 248.688 171.66C248.688 172.333 248.421 172.977 247.946 173.452C247.471 173.927 246.826 174.194 246.154 174.194H51.034C50.362 174.194 49.7176 173.927 49.2425 173.452C48.7673 172.977 48.5003 172.332 48.5 171.66Z" stroke="url(#paint29_linear_1_20294)" stroke-width="18"/>
<path d="M59.9028 181.797C59.9028 180.397 61.0378 179.263 62.4368 179.263H246.154C246.826 179.263 247.47 179.53 247.946 180.005C248.421 180.48 248.688 181.125 248.688 181.797C248.688 182.469 248.421 183.113 247.946 183.589C247.47 184.064 246.826 184.331 246.154 184.331H62.4368C61.7649 184.33 61.1205 184.063 60.6453 183.588C60.1702 183.113 59.9031 182.469 59.9028 181.797Z" stroke="url(#paint30_linear_1_20294)" stroke-width="18"/>
</g>
<g opacity="0.4">
<path d="M162.531 19.6185C162.532 18.9465 162.799 18.3021 163.274 17.827C163.749 17.3518 164.393 17.0848 165.065 17.0845H173.934C174.273 17.075 174.61 17.1335 174.926 17.2565C175.242 17.3796 175.53 17.5647 175.773 17.801C176.016 18.0372 176.209 18.3198 176.341 18.632C176.472 18.9442 176.54 19.2796 176.54 19.6185C176.54 19.9574 176.472 20.2928 176.341 20.605C176.209 20.9172 176.016 21.1998 175.773 21.436C175.53 21.6723 175.242 21.8574 174.926 21.9804C174.61 22.1035 174.273 22.162 173.934 22.1525H165.065C164.393 22.1525 163.749 21.8855 163.273 21.4103C162.798 20.9351 162.531 20.2906 162.531 19.6185Z" stroke="url(#paint31_linear_1_20294)" stroke-opacity="0.2" stroke-width="2"/>
<path d="M140.992 313.565C140.992 314.965 139.858 316.1 138.458 316.1H129.589C128.917 316.1 128.272 315.833 127.797 315.358C127.322 314.883 127.055 314.238 127.055 313.566C127.055 312.894 127.322 312.249 127.797 311.774C128.272 311.298 128.917 311.031 129.589 311.031H138.458C139.858 311.031 140.992 312.166 140.992 313.565Z" stroke="url(#paint32_linear_1_20294)" stroke-opacity="0.2" stroke-width="2"/>
<path d="M151.128 29.7547C151.128 29.0827 151.395 28.4383 151.87 27.9632C152.346 27.488 152.99 27.221 153.662 27.2207H184.071C184.731 27.2392 185.357 27.5143 185.817 27.9875C186.277 28.4607 186.535 29.0947 186.535 29.7547C186.535 30.4147 186.277 31.0487 185.817 31.5219C185.357 31.9951 184.731 32.2702 184.071 32.2887H153.662C152.99 32.2887 152.345 32.0217 151.87 31.5465C151.395 31.0713 151.128 30.4268 151.128 29.7547Z" stroke="url(#paint33_linear_1_20294)" stroke-opacity="0.2" stroke-width="2"/>
<path d="M152.395 303.43C152.395 304.83 151.261 305.964 149.861 305.964H119.453C118.781 305.964 118.136 305.697 117.661 305.221C117.186 304.746 116.919 304.102 116.919 303.43C116.919 302.757 117.186 302.113 117.661 301.638C118.136 301.162 118.781 300.896 119.453 300.896H149.861C151.261 300.896 152.395 302.031 152.395 303.43Z" stroke="url(#paint34_linear_1_20294)" stroke-opacity="0.2" stroke-width="2"/>
<path d="M143.526 39.8904C143.526 39.2185 143.793 38.5741 144.268 38.0989C144.744 37.6238 145.388 37.3567 146.06 37.3564H184.071C184.731 37.375 185.357 37.6501 185.817 38.1233C186.277 38.5965 186.535 39.2304 186.535 39.8904C186.535 40.5504 186.277 41.1844 185.817 41.6576C185.357 42.1308 184.731 42.4059 184.071 42.4244H146.06C145.388 42.4244 144.743 42.1575 144.268 41.6823C143.793 41.207 143.526 40.5625 143.526 39.8904Z" stroke="url(#paint35_linear_1_20294)" stroke-opacity="0.2" stroke-width="2"/>
<path d="M159.997 293.293C159.997 294.693 158.863 295.827 157.463 295.827H119.453C118.781 295.827 118.136 295.56 117.661 295.085C117.186 294.61 116.919 293.965 116.919 293.293C116.919 292.621 117.186 291.977 117.661 291.501C118.136 291.026 118.781 290.759 119.453 290.759H157.463C158.863 290.759 159.997 291.894 159.997 293.293Z" stroke="url(#paint36_linear_1_20294)" stroke-opacity="0.2" stroke-width="2"/>
<path d="M135.924 50.0267C135.924 49.3547 136.191 48.7103 136.666 48.2352C137.141 47.76 137.786 47.4929 138.458 47.4927H184.071C184.731 47.5112 185.357 47.7863 185.817 48.2595C186.277 48.7327 186.535 49.3667 186.535 50.0267C186.535 50.6867 186.277 51.3206 185.817 51.7938C185.357 52.267 184.731 52.5421 184.071 52.5607H138.458C137.786 52.5607 137.141 52.2937 136.666 51.8185C136.191 51.3433 135.924 50.6987 135.924 50.0267Z" stroke="url(#paint37_linear_1_20294)" stroke-opacity="0.2" stroke-width="2"/>
<path d="M167.599 283.158C167.599 284.558 166.465 285.692 165.065 285.692H119.453C118.781 285.692 118.136 285.425 117.661 284.949C117.186 284.474 116.919 283.83 116.919 283.158C116.919 282.485 117.186 281.841 117.661 281.366C118.136 280.891 118.781 280.624 119.453 280.624H165.065C166.465 280.624 167.599 281.759 167.599 283.158Z" stroke="url(#paint38_linear_1_20294)" stroke-opacity="0.2" stroke-width="2"/>
<path d="M128.322 60.1634C128.322 58.7634 129.456 57.6284 130.856 57.6284H184.071C184.734 57.6416 185.366 57.9144 185.831 58.3883C186.295 58.8622 186.555 59.4993 186.555 60.1629C186.555 60.8265 186.295 61.4637 185.831 61.9375C185.366 62.4114 184.734 62.6842 184.071 62.6974H130.856C130.184 62.6974 129.539 62.4304 129.064 61.9552C128.589 61.48 128.322 60.8355 128.322 60.1634Z" stroke="url(#paint39_linear_1_20294)" stroke-opacity="0.2" stroke-width="2"/>
<path d="M175.202 273.021C175.202 274.421 174.067 275.555 172.667 275.555H119.453C118.781 275.555 118.136 275.288 117.661 274.813C117.186 274.338 116.919 273.693 116.919 273.021C116.919 272.349 117.186 271.705 117.661 271.229C118.136 270.754 118.781 270.487 119.453 270.487H172.667C174.067 270.487 175.202 271.622 175.202 273.021Z" stroke="url(#paint40_linear_1_20294)" stroke-opacity="0.2" stroke-width="2"/>
<path d="M120.72 70.2996C120.72 68.8996 121.854 67.7656 123.254 67.7656H184.071C184.743 67.7656 185.388 68.0326 185.863 68.5078C186.338 68.983 186.605 69.6276 186.605 70.2996C186.605 70.9717 186.338 71.6162 185.863 72.0914C185.388 72.5666 184.743 72.8336 184.071 72.8336H123.254C122.582 72.8336 121.938 72.5666 121.462 72.0914C120.987 71.6162 120.72 70.9717 120.72 70.2996Z" stroke="url(#paint41_linear_1_20294)" stroke-opacity="0.2" stroke-width="2"/>
<path d="M182.804 262.886C182.804 263.558 182.537 264.202 182.061 264.677C181.586 265.152 180.942 265.419 180.27 265.42H119.453C118.781 265.42 118.136 265.153 117.661 264.677C117.186 264.202 116.919 263.558 116.919 262.886C116.919 262.214 117.186 261.569 117.661 261.094C118.136 260.619 118.781 260.352 119.453 260.352H180.27C180.942 260.352 181.587 260.619 182.062 261.094C182.537 261.569 182.804 262.214 182.804 262.886Z" stroke="url(#paint42_linear_1_20294)" stroke-opacity="0.2" stroke-width="2"/>
<path d="M111.851 80.4354C111.851 79.0354 112.985 77.9014 114.385 77.9014H184.071C184.743 77.9014 185.388 78.1683 185.863 78.6436C186.338 79.1188 186.605 79.7633 186.605 80.4354C186.605 81.1074 186.338 81.752 185.863 82.2272C185.388 82.7024 184.743 82.9694 184.071 82.9694H114.385C113.713 82.9694 113.068 82.7024 112.593 82.2272C112.118 81.752 111.851 81.1074 111.851 80.4354Z" stroke="url(#paint43_linear_1_20294)" stroke-opacity="0.2" stroke-width="2"/>
<path d="M191.673 252.749C191.673 253.421 191.406 254.066 190.93 254.541C190.455 255.016 189.811 255.283 189.139 255.283H119.453C118.781 255.283 118.136 255.016 117.661 254.541C117.186 254.066 116.919 253.421 116.919 252.749C116.919 252.077 117.186 251.433 117.661 250.958C118.136 250.482 118.781 250.215 119.453 250.215H189.139C189.811 250.215 190.456 250.482 190.931 250.958C191.406 251.433 191.673 252.077 191.673 252.749Z" stroke="url(#paint44_linear_1_20294)" stroke-opacity="0.2" stroke-width="2"/>
<path d="M104.249 90.5716C104.249 89.1716 105.383 88.0376 106.783 88.0376H184.071C184.743 88.0376 185.388 88.3046 185.863 88.7798C186.338 89.255 186.605 89.8995 186.605 90.5716C186.605 91.2437 186.338 91.8882 185.863 92.3634C185.388 92.8386 184.743 93.1056 184.071 93.1056H106.783C106.111 93.1056 105.466 92.8386 104.991 92.3634C104.516 91.8882 104.249 91.2437 104.249 90.5716Z" stroke="url(#paint45_linear_1_20294)" stroke-opacity="0.2" stroke-width="2"/>
<path d="M199.275 242.614C199.275 243.286 199.008 243.93 198.532 244.405C198.057 244.88 197.413 245.147 196.741 245.148H119.453C118.781 245.148 118.136 244.881 117.661 244.405C117.186 243.93 116.919 243.286 116.919 242.614C116.919 241.942 117.186 241.297 117.661 240.822C118.136 240.347 118.781 240.08 119.453 240.08H196.741C197.413 240.08 198.058 240.347 198.533 240.822C199.008 241.297 199.275 241.942 199.275 242.614Z" stroke="url(#paint46_linear_1_20294)" stroke-opacity="0.2" stroke-width="2"/>
<path d="M96.647 100.707C96.647 99.3073 97.781 98.1733 99.181 98.1733H184.071C184.743 98.1733 185.388 98.4403 185.863 98.9155C186.338 99.3907 186.605 100.035 186.605 100.707C186.605 101.379 186.338 102.024 185.863 102.499C185.388 102.974 184.743 103.241 184.071 103.241H99.181C98.5089 103.241 97.8644 102.974 97.3892 102.499C96.9139 102.024 96.647 101.379 96.647 100.707Z" stroke="url(#paint47_linear_1_20294)" stroke-opacity="0.2" stroke-width="2"/>
<path d="M206.877 232.477C206.877 233.149 206.61 233.794 206.134 234.269C205.659 234.744 205.015 235.011 204.343 235.011H119.453C118.781 235.011 118.136 234.744 117.661 234.269C117.185 233.794 116.918 233.149 116.918 232.477C116.918 231.805 117.185 231.16 117.661 230.685C118.136 230.209 118.781 229.942 119.453 229.942H204.343C205.015 229.943 205.66 230.21 206.135 230.685C206.61 231.161 206.877 231.805 206.877 232.477Z" stroke="url(#paint48_linear_1_20294)" stroke-opacity="0.2" stroke-width="2"/>
<path d="M89.0439 110.844C89.0442 110.171 89.3114 109.527 89.7868 109.052C90.2621 108.577 90.9068 108.31 91.5789 108.31H184.071C184.731 108.328 185.357 108.603 185.817 109.076C186.277 109.55 186.535 110.184 186.535 110.844C186.535 111.504 186.277 112.138 185.817 112.611C185.357 113.084 184.731 113.359 184.071 113.378H91.5789C91.2461 113.378 90.9165 113.312 90.6089 113.185C90.3014 113.058 90.0219 112.871 89.7865 112.636C89.5511 112.4 89.3643 112.121 89.2369 111.814C89.1095 111.506 89.0439 111.176 89.0439 110.844Z" stroke="url(#paint49_linear_1_20294)" stroke-opacity="0.2" stroke-width="2"/>
<path d="M214.479 222.341C214.479 223.741 213.344 224.875 211.945 224.875H119.453C118.781 224.875 118.136 224.608 117.661 224.132C117.186 223.657 116.919 223.013 116.919 222.341C116.919 221.669 117.186 221.024 117.661 220.549C118.136 220.074 118.781 219.807 119.453 219.807H211.945C212.617 219.807 213.261 220.074 213.736 220.549C214.212 221.024 214.479 221.669 214.479 222.341Z" stroke="url(#paint50_linear_1_20294)" stroke-opacity="0.2" stroke-width="2"/>
<path d="M81.4419 120.979C81.4422 120.307 81.7092 119.663 82.1844 119.188C82.6595 118.713 83.3039 118.446 83.9759 118.445H184.071C184.731 118.464 185.357 118.739 185.817 119.212C186.277 119.685 186.535 120.319 186.535 120.979C186.535 121.639 186.277 122.273 185.817 122.746C185.357 123.22 184.731 123.495 184.071 123.513H83.9759C83.3038 123.513 82.6593 123.246 82.1841 122.771C81.7089 122.296 81.4419 121.651 81.4419 120.979Z" stroke="url(#paint51_linear_1_20294)" stroke-opacity="0.2" stroke-width="2"/>
<path d="M222.081 212.204C222.081 213.604 220.947 214.738 219.547 214.738H119.453C118.781 214.738 118.136 214.471 117.661 213.996C117.186 213.521 116.919 212.876 116.919 212.204C116.919 211.532 117.186 210.888 117.661 210.413C118.136 209.937 118.781 209.67 119.453 209.67H219.547C220.947 209.67 222.081 210.805 222.081 212.204Z" stroke="url(#paint52_linear_1_20294)" stroke-opacity="0.2" stroke-width="2"/>
<path d="M73.8398 131.116C73.8401 130.444 74.1072 129.799 74.5823 129.324C75.0575 128.849 75.7019 128.582 76.3738 128.582H184.071C184.731 128.6 185.357 128.875 185.817 129.348C186.277 129.822 186.535 130.456 186.535 131.116C186.535 131.776 186.277 132.41 185.817 132.883C185.357 133.356 184.731 133.631 184.071 133.65H76.3738C75.7018 133.65 75.0572 133.383 74.582 132.907C74.1068 132.432 73.8398 131.788 73.8398 131.116Z" stroke="url(#paint53_linear_1_20294)" stroke-opacity="0.2" stroke-width="2"/>
<path d="M229.683 202.069C229.683 203.469 228.549 204.603 227.149 204.603H119.453C118.781 204.603 118.136 204.336 117.661 203.86C117.186 203.385 116.919 202.741 116.919 202.069C116.919 201.397 117.186 200.752 117.661 200.277C118.136 199.802 118.781 199.535 119.453 199.535H227.149C228.549 199.535 229.683 200.67 229.683 202.069Z" stroke="url(#paint54_linear_1_20294)" stroke-opacity="0.2" stroke-width="2"/>
<path d="M66.2378 141.251C66.2381 140.579 66.5051 139.935 66.9803 139.46C67.4554 138.985 68.0998 138.718 68.7718 138.717H184.071C184.734 138.73 185.366 139.003 185.831 139.477C186.295 139.951 186.555 140.588 186.555 141.252C186.555 141.915 186.295 142.553 185.831 143.026C185.366 143.5 184.734 143.773 184.071 143.786H68.7718C68.0996 143.786 67.4551 143.519 66.9799 143.043C66.5047 142.568 66.2378 141.923 66.2378 141.251Z" stroke="url(#paint55_linear_1_20294)" stroke-opacity="0.2" stroke-width="2"/>
<path d="M237.285 191.932C237.285 193.332 236.151 194.466 234.751 194.466H119.453C119.12 194.466 118.791 194.401 118.483 194.274C118.176 194.146 117.896 193.96 117.661 193.724C117.426 193.489 117.239 193.21 117.112 192.902C116.984 192.595 116.919 192.265 116.919 191.932C116.919 191.6 116.984 191.27 117.112 190.963C117.239 190.655 117.426 190.376 117.661 190.141C117.896 189.905 118.176 189.719 118.483 189.591C118.791 189.464 119.12 189.398 119.453 189.398H234.751C236.151 189.398 237.285 190.533 237.285 191.932Z" stroke="url(#paint56_linear_1_20294)" stroke-opacity="0.2" stroke-width="2"/>
<path d="M58.6362 151.388C58.6362 149.988 59.7712 148.854 61.1702 148.854H251.222C251.894 148.854 252.539 149.121 253.014 149.597C253.489 150.072 253.756 150.716 253.756 151.388C253.756 152.061 253.489 152.705 253.014 153.18C252.539 153.656 251.894 153.922 251.222 153.922H61.1702C60.4982 153.922 59.8539 153.655 59.3787 153.18C58.9036 152.705 58.6365 152.06 58.6362 151.388Z" stroke="url(#paint57_linear_1_20294)" stroke-opacity="0.2" stroke-width="2"/>
<path d="M51.0342 161.525C51.0342 160.125 52.1692 158.991 53.5682 158.991H252.489C253.161 158.991 253.806 159.258 254.281 159.733C254.756 160.208 255.023 160.853 255.023 161.525C255.023 162.197 254.756 162.841 254.281 163.317C253.806 163.792 253.161 164.059 252.489 164.059H53.5682C52.8962 164.058 52.2518 163.791 51.7767 163.316C51.3015 162.841 51.0344 162.197 51.0342 161.525Z" stroke="url(#paint58_linear_1_20294)" stroke-opacity="0.2" stroke-width="2"/>
<path d="M48.5 171.66C48.5 170.26 49.635 169.126 51.034 169.126H246.154C246.826 169.126 247.471 169.393 247.946 169.869C248.421 170.344 248.688 170.988 248.688 171.66C248.688 172.333 248.421 172.977 247.946 173.452C247.471 173.927 246.826 174.194 246.154 174.194H51.034C50.362 174.194 49.7176 173.927 49.2425 173.452C48.7673 172.977 48.5003 172.332 48.5 171.66Z" stroke="url(#paint59_linear_1_20294)" stroke-opacity="0.2" stroke-width="2"/>
<path d="M59.9028 181.797C59.9028 180.397 61.0378 179.263 62.4368 179.263H246.154C246.826 179.263 247.47 179.53 247.946 180.005C248.421 180.48 248.688 181.125 248.688 181.797C248.688 182.469 248.421 183.113 247.946 183.589C247.47 184.064 246.826 184.331 246.154 184.331H62.4368C61.7649 184.33 61.1205 184.063 60.6453 183.588C60.1702 183.113 59.9031 182.469 59.9028 181.797Z" stroke="url(#paint60_linear_1_20294)" stroke-opacity="0.2" stroke-width="2"/>
</g>
<path d="M162.531 19.6185C162.532 18.9465 162.799 18.3021 163.274 17.827C163.749 17.3518 164.393 17.0848 165.065 17.0845H173.934C174.273 17.075 174.61 17.1335 174.926 17.2565C175.242 17.3796 175.53 17.5647 175.773 17.801C176.016 18.0372 176.209 18.3198 176.341 18.632C176.472 18.9442 176.54 19.2796 176.54 19.6185C176.54 19.9574 176.472 20.2928 176.341 20.605C176.209 20.9172 176.016 21.1998 175.773 21.436C175.53 21.6723 175.242 21.8574 174.926 21.9804C174.61 22.1035 174.273 22.162 173.934 22.1525H165.065C164.393 22.1525 163.749 21.8855 163.273 21.4103C162.798 20.9351 162.531 20.2906 162.531 19.6185Z" stroke="url(#paint61_linear_1_20294)" stroke-opacity="0.2" stroke-width="8"/>
<path d="M140.992 313.565C140.992 314.965 139.858 316.1 138.458 316.1H129.589C128.917 316.1 128.272 315.833 127.797 315.358C127.322 314.883 127.055 314.238 127.055 313.566C127.055 312.894 127.322 312.249 127.797 311.774C128.272 311.298 128.917 311.031 129.589 311.031H138.458C139.858 311.031 140.992 312.166 140.992 313.565Z" stroke="url(#paint62_linear_1_20294)" stroke-opacity="0.2" stroke-width="8"/>
<path d="M151.128 29.7547C151.128 29.0827 151.395 28.4383 151.87 27.9632C152.346 27.488 152.99 27.221 153.662 27.2207H184.071C184.731 27.2392 185.357 27.5143 185.817 27.9875C186.277 28.4607 186.535 29.0947 186.535 29.7547C186.535 30.4147 186.277 31.0487 185.817 31.5219C185.357 31.9951 184.731 32.2702 184.071 32.2887H153.662C152.99 32.2887 152.345 32.0217 151.87 31.5465C151.395 31.0713 151.128 30.4268 151.128 29.7547Z" stroke="url(#paint63_linear_1_20294)" stroke-opacity="0.2" stroke-width="8"/>
<path d="M152.395 303.43C152.395 304.83 151.261 305.964 149.861 305.964H119.453C118.781 305.964 118.136 305.697 117.661 305.221C117.186 304.746 116.919 304.102 116.919 303.43C116.919 302.757 117.186 302.113 117.661 301.638C118.136 301.162 118.781 300.896 119.453 300.896H149.861C151.261 300.896 152.395 302.031 152.395 303.43Z" stroke="url(#paint64_linear_1_20294)" stroke-opacity="0.2" stroke-width="8"/>
<path d="M143.526 39.8904C143.526 39.2185 143.793 38.5741 144.268 38.0989C144.744 37.6238 145.388 37.3567 146.06 37.3564H184.071C184.731 37.375 185.357 37.6501 185.817 38.1233C186.277 38.5965 186.535 39.2304 186.535 39.8904C186.535 40.5504 186.277 41.1844 185.817 41.6576C185.357 42.1308 184.731 42.4059 184.071 42.4244H146.06C145.388 42.4244 144.743 42.1575 144.268 41.6823C143.793 41.207 143.526 40.5625 143.526 39.8904Z" stroke="url(#paint65_linear_1_20294)" stroke-opacity="0.2" stroke-width="8"/>
<path d="M159.997 293.293C159.997 294.693 158.863 295.827 157.463 295.827H119.453C118.781 295.827 118.136 295.56 117.661 295.085C117.186 294.61 116.919 293.965 116.919 293.293C116.919 292.621 117.186 291.977 117.661 291.501C118.136 291.026 118.781 290.759 119.453 290.759H157.463C158.863 290.759 159.997 291.894 159.997 293.293Z" stroke="url(#paint66_linear_1_20294)" stroke-opacity="0.2" stroke-width="8"/>
<path d="M135.924 50.0267C135.924 49.3547 136.191 48.7103 136.666 48.2352C137.141 47.76 137.786 47.4929 138.458 47.4927H184.071C184.731 47.5112 185.357 47.7863 185.817 48.2595C186.277 48.7327 186.535 49.3667 186.535 50.0267C186.535 50.6867 186.277 51.3206 185.817 51.7938C185.357 52.267 184.731 52.5421 184.071 52.5607H138.458C137.786 52.5607 137.141 52.2937 136.666 51.8185C136.191 51.3433 135.924 50.6987 135.924 50.0267Z" stroke="url(#paint67_linear_1_20294)" stroke-opacity="0.2" stroke-width="8"/>
<path d="M167.599 283.158C167.599 284.558 166.465 285.692 165.065 285.692H119.453C118.781 285.692 118.136 285.425 117.661 284.949C117.186 284.474 116.919 283.83 116.919 283.158C116.919 282.485 117.186 281.841 117.661 281.366C118.136 280.891 118.781 280.624 119.453 280.624H165.065C166.465 280.624 167.599 281.759 167.599 283.158Z" stroke="url(#paint68_linear_1_20294)" stroke-opacity="0.2" stroke-width="8"/>
<path d="M128.322 60.1634C128.322 58.7634 129.456 57.6284 130.856 57.6284H184.071C184.734 57.6416 185.366 57.9144 185.831 58.3883C186.295 58.8622 186.555 59.4993 186.555 60.1629C186.555 60.8265 186.295 61.4637 185.831 61.9375C185.366 62.4114 184.734 62.6842 184.071 62.6974H130.856C130.184 62.6974 129.539 62.4304 129.064 61.9552C128.589 61.48 128.322 60.8355 128.322 60.1634Z" stroke="url(#paint69_linear_1_20294)" stroke-opacity="0.2" stroke-width="8"/>
<path d="M175.202 273.021C175.202 274.421 174.067 275.555 172.667 275.555H119.453C118.781 275.555 118.136 275.288 117.661 274.813C117.186 274.338 116.919 273.693 116.919 273.021C116.919 272.349 117.186 271.705 117.661 271.229C118.136 270.754 118.781 270.487 119.453 270.487H172.667C174.067 270.487 175.202 271.622 175.202 273.021Z" stroke="url(#paint70_linear_1_20294)" stroke-opacity="0.2" stroke-width="8"/>
<path d="M120.72 70.2996C120.72 68.8996 121.854 67.7656 123.254 67.7656H184.071C184.743 67.7656 185.388 68.0326 185.863 68.5078C186.338 68.983 186.605 69.6276 186.605 70.2996C186.605 70.9717 186.338 71.6162 185.863 72.0914C185.388 72.5666 184.743 72.8336 184.071 72.8336H123.254C122.582 72.8336 121.938 72.5666 121.462 72.0914C120.987 71.6162 120.72 70.9717 120.72 70.2996Z" stroke="url(#paint71_linear_1_20294)" stroke-opacity="0.2" stroke-width="8"/>
<path d="M182.804 262.886C182.804 263.558 182.537 264.202 182.061 264.677C181.586 265.152 180.942 265.419 180.27 265.42H119.453C118.781 265.42 118.136 265.153 117.661 264.677C117.186 264.202 116.919 263.558 116.919 262.886C116.919 262.214 117.186 261.569 117.661 261.094C118.136 260.619 118.781 260.352 119.453 260.352H180.27C180.942 260.352 181.587 260.619 182.062 261.094C182.537 261.569 182.804 262.214 182.804 262.886Z" stroke="url(#paint72_linear_1_20294)" stroke-opacity="0.2" stroke-width="8"/>
<path d="M111.851 80.4354C111.851 79.0354 112.985 77.9014 114.385 77.9014H184.071C184.743 77.9014 185.388 78.1683 185.863 78.6436C186.338 79.1188 186.605 79.7633 186.605 80.4354C186.605 81.1074 186.338 81.752 185.863 82.2272C185.388 82.7024 184.743 82.9694 184.071 82.9694H114.385C113.713 82.9694 113.068 82.7024 112.593 82.2272C112.118 81.752 111.851 81.1074 111.851 80.4354Z" stroke="url(#paint73_linear_1_20294)" stroke-opacity="0.2" stroke-width="8"/>
<path d="M191.673 252.749C191.673 253.421 191.406 254.066 190.93 254.541C190.455 255.016 189.811 255.283 189.139 255.283H119.453C118.781 255.283 118.136 255.016 117.661 254.541C117.186 254.066 116.919 253.421 116.919 252.749C116.919 252.077 117.186 251.433 117.661 250.958C118.136 250.482 118.781 250.215 119.453 250.215H189.139C189.811 250.215 190.456 250.482 190.931 250.958C191.406 251.433 191.673 252.077 191.673 252.749Z" stroke="url(#paint74_linear_1_20294)" stroke-opacity="0.2" stroke-width="8"/>
<path d="M104.249 90.5716C104.249 89.1716 105.383 88.0376 106.783 88.0376H184.071C184.743 88.0376 185.388 88.3046 185.863 88.7798C186.338 89.255 186.605 89.8995 186.605 90.5716C186.605 91.2437 186.338 91.8882 185.863 92.3634C185.388 92.8386 184.743 93.1056 184.071 93.1056H106.783C106.111 93.1056 105.466 92.8386 104.991 92.3634C104.516 91.8882 104.249 91.2437 104.249 90.5716Z" stroke="url(#paint75_linear_1_20294)" stroke-opacity="0.2" stroke-width="8"/>
<path d="M199.275 242.614C199.275 243.286 199.008 243.93 198.532 244.405C198.057 244.88 197.413 245.147 196.741 245.148H119.453C118.781 245.148 118.136 244.881 117.661 244.405C117.186 243.93 116.919 243.286 116.919 242.614C116.919 241.942 117.186 241.297 117.661 240.822C118.136 240.347 118.781 240.08 119.453 240.08H196.741C197.413 240.08 198.058 240.347 198.533 240.822C199.008 241.297 199.275 241.942 199.275 242.614Z" stroke="url(#paint76_linear_1_20294)" stroke-opacity="0.2" stroke-width="8"/>
<path d="M96.647 100.707C96.647 99.3073 97.781 98.1733 99.181 98.1733H184.071C184.743 98.1733 185.388 98.4403 185.863 98.9155C186.338 99.3907 186.605 100.035 186.605 100.707C186.605 101.379 186.338 102.024 185.863 102.499C185.388 102.974 184.743 103.241 184.071 103.241H99.181C98.5089 103.241 97.8644 102.974 97.3892 102.499C96.9139 102.024 96.647 101.379 96.647 100.707Z" stroke="url(#paint77_linear_1_20294)" stroke-opacity="0.2" stroke-width="8"/>
<path d="M206.877 232.477C206.877 233.149 206.61 233.794 206.134 234.269C205.659 234.744 205.015 235.011 204.343 235.011H119.453C118.781 235.011 118.136 234.744 117.661 234.269C117.185 233.794 116.918 233.149 116.918 232.477C116.918 231.805 117.185 231.16 117.661 230.685C118.136 230.209 118.781 229.942 119.453 229.942H204.343C205.015 229.943 205.66 230.21 206.135 230.685C206.61 231.161 206.877 231.805 206.877 232.477Z" stroke="url(#paint78_linear_1_20294)" stroke-opacity="0.2" stroke-width="8"/>
<path d="M89.0439 110.844C89.0442 110.171 89.3114 109.527 89.7868 109.052C90.2621 108.577 90.9068 108.31 91.5789 108.31H184.071C184.731 108.328 185.357 108.603 185.817 109.076C186.277 109.55 186.535 110.184 186.535 110.844C186.535 111.504 186.277 112.138 185.817 112.611C185.357 113.084 184.731 113.359 184.071 113.378H91.5789C91.2461 113.378 90.9165 113.312 90.6089 113.185C90.3014 113.058 90.0219 112.871 89.7865 112.636C89.5511 112.4 89.3643 112.121 89.2369 111.814C89.1095 111.506 89.0439 111.176 89.0439 110.844Z" stroke="url(#paint79_linear_1_20294)" stroke-opacity="0.2" stroke-width="8"/>
<path d="M214.479 222.341C214.479 223.741 213.344 224.875 211.945 224.875H119.453C118.781 224.875 118.136 224.608 117.661 224.132C117.186 223.657 116.919 223.013 116.919 222.341C116.919 221.669 117.186 221.024 117.661 220.549C118.136 220.074 118.781 219.807 119.453 219.807H211.945C212.617 219.807 213.261 220.074 213.736 220.549C214.212 221.024 214.479 221.669 214.479 222.341Z" stroke="url(#paint80_linear_1_20294)" stroke-opacity="0.2" stroke-width="8"/>
<path d="M81.4419 120.979C81.4422 120.307 81.7092 119.663 82.1844 119.188C82.6595 118.713 83.3039 118.446 83.9759 118.445H184.071C184.731 118.464 185.357 118.739 185.817 119.212C186.277 119.685 186.535 120.319 186.535 120.979C186.535 121.639 186.277 122.273 185.817 122.746C185.357 123.22 184.731 123.495 184.071 123.513H83.9759C83.3038 123.513 82.6593 123.246 82.1841 122.771C81.7089 122.296 81.4419 121.651 81.4419 120.979Z" stroke="url(#paint81_linear_1_20294)" stroke-opacity="0.2" stroke-width="8"/>
<path d="M222.081 212.204C222.081 213.604 220.947 214.738 219.547 214.738H119.453C118.781 214.738 118.136 214.471 117.661 213.996C117.186 213.521 116.919 212.876 116.919 212.204C116.919 211.532 117.186 210.888 117.661 210.413C118.136 209.937 118.781 209.67 119.453 209.67H219.547C220.947 209.67 222.081 210.805 222.081 212.204Z" stroke="url(#paint82_linear_1_20294)" stroke-opacity="0.2" stroke-width="8"/>
<path d="M73.8398 131.116C73.8401 130.444 74.1072 129.799 74.5823 129.324C75.0575 128.849 75.7019 128.582 76.3738 128.582H184.071C184.731 128.6 185.357 128.875 185.817 129.348C186.277 129.822 186.535 130.456 186.535 131.116C186.535 131.776 186.277 132.41 185.817 132.883C185.357 133.356 184.731 133.631 184.071 133.65H76.3738C75.7018 133.65 75.0572 133.383 74.582 132.907C74.1068 132.432 73.8398 131.788 73.8398 131.116Z" stroke="url(#paint83_linear_1_20294)" stroke-opacity="0.2" stroke-width="8"/>
<path d="M229.683 202.069C229.683 203.469 228.549 204.603 227.149 204.603H119.453C118.781 204.603 118.136 204.336 117.661 203.86C117.186 203.385 116.919 202.741 116.919 202.069C116.919 201.397 117.186 200.752 117.661 200.277C118.136 199.802 118.781 199.535 119.453 199.535H227.149C228.549 199.535 229.683 200.67 229.683 202.069Z" stroke="url(#paint84_linear_1_20294)" stroke-opacity="0.2" stroke-width="8"/>
<path d="M66.2378 141.251C66.2381 140.579 66.5051 139.935 66.9803 139.46C67.4554 138.985 68.0998 138.718 68.7718 138.717H184.071C184.734 138.73 185.366 139.003 185.831 139.477C186.295 139.951 186.555 140.588 186.555 141.252C186.555 141.915 186.295 142.553 185.831 143.026C185.366 143.5 184.734 143.773 184.071 143.786H68.7718C68.0996 143.786 67.4551 143.519 66.9799 143.043C66.5047 142.568 66.2378 141.923 66.2378 141.251Z" stroke="url(#paint85_linear_1_20294)" stroke-opacity="0.2" stroke-width="8"/>
<path d="M237.285 191.932C237.285 193.332 236.151 194.466 234.751 194.466H119.453C119.12 194.466 118.791 194.401 118.483 194.274C118.176 194.146 117.896 193.96 117.661 193.724C117.426 193.489 117.239 193.21 117.112 192.902C116.984 192.595 116.919 192.265 116.919 191.932C116.919 191.6 116.984 191.27 117.112 190.963C117.239 190.655 117.426 190.376 117.661 190.141C117.896 189.905 118.176 189.719 118.483 189.591C118.791 189.464 119.12 189.398 119.453 189.398H234.751C236.151 189.398 237.285 190.533 237.285 191.932Z" stroke="url(#paint86_linear_1_20294)" stroke-opacity="0.2" stroke-width="8"/>
<path d="M58.6362 151.388C58.6362 149.988 59.7712 148.854 61.1702 148.854H251.222C251.894 148.854 252.539 149.121 253.014 149.597C253.489 150.072 253.756 150.716 253.756 151.388C253.756 152.061 253.489 152.705 253.014 153.18C252.539 153.656 251.894 153.922 251.222 153.922H61.1702C60.4982 153.922 59.8539 153.655 59.3787 153.18C58.9036 152.705 58.6365 152.06 58.6362 151.388Z" stroke="url(#paint87_linear_1_20294)" stroke-opacity="0.2" stroke-width="8"/>
<path d="M51.0342 161.525C51.0342 160.125 52.1692 158.991 53.5682 158.991H252.489C253.161 158.991 253.806 159.258 254.281 159.733C254.756 160.208 255.023 160.853 255.023 161.525C255.023 162.197 254.756 162.841 254.281 163.317C253.806 163.792 253.161 164.059 252.489 164.059H53.5682C52.8962 164.058 52.2518 163.791 51.7767 163.316C51.3015 162.841 51.0344 162.197 51.0342 161.525Z" stroke="url(#paint88_linear_1_20294)" stroke-opacity="0.2" stroke-width="8"/>
<path d="M48.5 171.66C48.5 170.26 49.635 169.126 51.034 169.126H246.154C246.826 169.126 247.471 169.393 247.946 169.869C248.421 170.344 248.688 170.988 248.688 171.66C248.688 172.333 248.421 172.977 247.946 173.452C247.471 173.927 246.826 174.194 246.154 174.194H51.034C50.362 174.194 49.7176 173.927 49.2425 173.452C48.7673 172.977 48.5003 172.332 48.5 171.66Z" stroke="url(#paint89_linear_1_20294)" stroke-opacity="0.2" stroke-width="8"/>
<path d="M59.9028 181.797C59.9028 180.397 61.0378 179.263 62.4368 179.263H246.154C246.826 179.263 247.47 179.53 247.946 180.005C248.421 180.48 248.688 181.125 248.688 181.797C248.688 182.469 248.421 183.113 247.946 183.589C247.47 184.064 246.826 184.331 246.154 184.331H62.4368C61.7649 184.33 61.1205 184.063 60.6453 183.588C60.1702 183.113 59.9031 182.469 59.9028 181.797Z" stroke="url(#paint90_linear_1_20294)" stroke-opacity="0.2" stroke-width="8"/>
<path d="M162.531 19.6185C162.532 18.9465 162.799 18.3021 163.274 17.827C163.749 17.3518 164.393 17.0848 165.065 17.0845H173.934C174.273 17.075 174.61 17.1335 174.926 17.2565C175.242 17.3796 175.53 17.5647 175.773 17.801C176.016 18.0372 176.209 18.3198 176.341 18.632C176.472 18.9442 176.54 19.2796 176.54 19.6185C176.54 19.9574 176.472 20.2928 176.341 20.605C176.209 20.9172 176.016 21.1998 175.773 21.436C175.53 21.6723 175.242 21.8574 174.926 21.9804C174.61 22.1035 174.273 22.162 173.934 22.1525H165.065C164.393 22.1525 163.749 21.8855 163.273 21.4103C162.798 20.9351 162.531 20.2906 162.531 19.6185Z" stroke="url(#paint91_radial_1_20294)"/>
<path d="M151.128 29.7547C151.128 29.0827 151.395 28.4383 151.87 27.9632C152.346 27.488 152.99 27.221 153.662 27.2207H184.071C184.731 27.2392 185.357 27.5143 185.817 27.9875C186.277 28.4607 186.535 29.0947 186.535 29.7547C186.535 30.4147 186.277 31.0487 185.817 31.5219C185.357 31.9951 184.731 32.2702 184.071 32.2887H153.662C152.99 32.2887 152.345 32.0217 151.87 31.5465C151.395 31.0713 151.128 30.4268 151.128 29.7547Z" stroke="url(#paint92_radial_1_20294)"/>
<path d="M143.526 39.8904C143.526 39.2185 143.793 38.5741 144.268 38.0989C144.744 37.6238 145.388 37.3567 146.06 37.3564H184.071C184.731 37.375 185.357 37.6501 185.817 38.1233C186.277 38.5965 186.535 39.2304 186.535 39.8904C186.535 40.5504 186.277 41.1844 185.817 41.6576C185.357 42.1308 184.731 42.4059 184.071 42.4244H146.06C145.388 42.4244 144.743 42.1575 144.268 41.6823C143.793 41.207 143.526 40.5625 143.526 39.8904Z" stroke="url(#paint93_radial_1_20294)"/>
<path d="M135.924 50.0267C135.924 49.3547 136.191 48.7103 136.666 48.2352C137.141 47.76 137.786 47.4929 138.458 47.4927H184.071C184.731 47.5112 185.357 47.7863 185.817 48.2595C186.277 48.7327 186.535 49.3667 186.535 50.0267C186.535 50.6867 186.277 51.3206 185.817 51.7938C185.357 52.267 184.731 52.5421 184.071 52.5607H138.458C137.786 52.5607 137.141 52.2937 136.666 51.8185C136.191 51.3433 135.924 50.6987 135.924 50.0267Z" stroke="url(#paint94_radial_1_20294)"/>
<path d="M128.322 60.1634C128.322 58.7634 129.456 57.6284 130.856 57.6284H184.071C184.734 57.6416 185.366 57.9144 185.831 58.3883C186.295 58.8622 186.555 59.4993 186.555 60.1629C186.555 60.8265 186.295 61.4637 185.831 61.9375C185.366 62.4114 184.734 62.6842 184.071 62.6974H130.856C130.184 62.6974 129.539 62.4304 129.064 61.9552C128.589 61.48 128.322 60.8355 128.322 60.1634Z" stroke="url(#paint95_radial_1_20294)"/>
<path d="M120.72 70.2996C120.72 68.8996 121.854 67.7656 123.254 67.7656H184.071C184.743 67.7656 185.388 68.0326 185.863 68.5078C186.338 68.983 186.605 69.6276 186.605 70.2996C186.605 70.9717 186.338 71.6162 185.863 72.0914C185.388 72.5666 184.743 72.8336 184.071 72.8336H123.254C122.582 72.8336 121.938 72.5666 121.462 72.0914C120.987 71.6162 120.72 70.9717 120.72 70.2996Z" stroke="url(#paint96_radial_1_20294)"/>
<path d="M111.851 80.4354C111.851 79.0354 112.985 77.9014 114.385 77.9014H184.071C184.743 77.9014 185.388 78.1683 185.863 78.6436C186.338 79.1188 186.605 79.7633 186.605 80.4354C186.605 81.1074 186.338 81.752 185.863 82.2272C185.388 82.7024 184.743 82.9694 184.071 82.9694H114.385C113.713 82.9694 113.068 82.7024 112.593 82.2272C112.118 81.752 111.851 81.1074 111.851 80.4354Z" stroke="url(#paint97_radial_1_20294)"/>
<path d="M104.249 90.5716C104.249 89.1716 105.383 88.0376 106.783 88.0376H184.071C184.743 88.0376 185.388 88.3046 185.863 88.7798C186.338 89.255 186.605 89.8995 186.605 90.5716C186.605 91.2437 186.338 91.8882 185.863 92.3634C185.388 92.8386 184.743 93.1056 184.071 93.1056H106.783C106.111 93.1056 105.466 92.8386 104.991 92.3634C104.516 91.8882 104.249 91.2437 104.249 90.5716Z" stroke="url(#paint98_radial_1_20294)"/>
<path d="M96.647 100.707C96.647 99.3073 97.781 98.1733 99.181 98.1733H184.071C184.743 98.1733 185.388 98.4403 185.863 98.9155C186.338 99.3907 186.605 100.035 186.605 100.707C186.605 101.379 186.338 102.024 185.863 102.499C185.388 102.974 184.743 103.241 184.071 103.241H99.181C98.5089 103.241 97.8644 102.974 97.3892 102.499C96.9139 102.024 96.647 101.379 96.647 100.707Z" stroke="url(#paint99_radial_1_20294)"/>
<path d="M89.0439 110.844C89.0442 110.171 89.3114 109.527 89.7868 109.052C90.2621 108.577 90.9068 108.31 91.5789 108.31H184.071C184.731 108.328 185.357 108.603 185.817 109.076C186.277 109.55 186.535 110.184 186.535 110.844C186.535 111.504 186.277 112.138 185.817 112.611C185.357 113.084 184.731 113.359 184.071 113.378H91.5789C91.2461 113.378 90.9165 113.312 90.6089 113.185C90.3014 113.058 90.0219 112.871 89.7865 112.636C89.5511 112.4 89.3643 112.121 89.2369 111.814C89.1095 111.506 89.0439 111.176 89.0439 110.844Z" stroke="url(#paint100_radial_1_20294)"/>
<path d="M81.4419 120.979C81.4422 120.307 81.7092 119.663 82.1844 119.188C82.6595 118.713 83.3039 118.446 83.9759 118.445H184.071C184.731 118.464 185.357 118.739 185.817 119.212C186.277 119.685 186.535 120.319 186.535 120.979C186.535 121.639 186.277 122.273 185.817 122.746C185.357 123.22 184.731 123.495 184.071 123.513H83.9759C83.3038 123.513 82.6593 123.246 82.1841 122.771C81.7089 122.296 81.4419 121.651 81.4419 120.979Z" stroke="url(#paint101_radial_1_20294)"/>
<path d="M73.8398 131.116C73.8401 130.444 74.1072 129.799 74.5823 129.324C75.0575 128.849 75.7019 128.582 76.3738 128.582H184.071C184.731 128.6 185.357 128.875 185.817 129.348C186.277 129.822 186.535 130.456 186.535 131.116C186.535 131.776 186.277 132.41 185.817 132.883C185.357 133.356 184.731 133.631 184.071 133.65H76.3738C75.7018 133.65 75.0572 133.383 74.582 132.907C74.1068 132.432 73.8398 131.788 73.8398 131.116Z" stroke="url(#paint102_radial_1_20294)"/>
<path d="M66.2378 141.251C66.2381 140.579 66.5051 139.935 66.9803 139.46C67.4554 138.985 68.0998 138.718 68.7718 138.717H184.071C184.734 138.73 185.366 139.003 185.831 139.477C186.295 139.951 186.555 140.588 186.555 141.252C186.555 141.915 186.295 142.553 185.831 143.026C185.366 143.5 184.734 143.773 184.071 143.786H68.7718C68.0996 143.786 67.4551 143.519 66.9799 143.043C66.5047 142.568 66.2378 141.923 66.2378 141.251Z" stroke="url(#paint103_radial_1_20294)"/>
<path d="M58.6362 151.388C58.6362 149.988 59.7712 148.854 61.1702 148.854H251.222C251.894 148.854 252.539 149.121 253.014 149.597C253.489 150.072 253.756 150.716 253.756 151.388C253.756 152.061 253.489 152.705 253.014 153.18C252.539 153.656 251.894 153.922 251.222 153.922H61.1702C60.4982 153.922 59.8539 153.655 59.3787 153.18C58.9036 152.705 58.6365 152.06 58.6362 151.388Z" stroke="url(#paint104_radial_1_20294)"/>
<path d="M51.0342 161.525C51.0342 160.125 52.1692 158.991 53.5682 158.991H252.489C253.161 158.991 253.806 159.258 254.281 159.733C254.756 160.208 255.023 160.853 255.023 161.525C255.023 162.197 254.756 162.841 254.281 163.317C253.806 163.792 253.161 164.059 252.489 164.059H53.5682C52.8962 164.058 52.2518 163.791 51.7767 163.316C51.3015 162.841 51.0344 162.197 51.0342 161.525Z" stroke="url(#paint105_radial_1_20294)"/>
<path d="M48.5 171.66C48.5 170.26 49.635 169.126 51.034 169.126H246.154C246.826 169.126 247.471 169.393 247.946 169.869C248.421 170.344 248.688 170.988 248.688 171.66C248.688 172.333 248.421 172.977 247.946 173.452C247.471 173.927 246.826 174.194 246.154 174.194H51.034C50.362 174.194 49.7176 173.927 49.2425 173.452C48.7673 172.977 48.5003 172.332 48.5 171.66Z" stroke="url(#paint106_radial_1_20294)"/>
<path d="M59.9028 181.797C59.9028 180.397 61.0378 179.263 62.4368 179.263H246.154C246.826 179.263 247.47 179.53 247.946 180.005C248.421 180.48 248.688 181.125 248.688 181.797C248.688 182.469 248.421 183.113 247.946 183.589C247.47 184.064 246.826 184.331 246.154 184.331H62.4368C61.7649 184.33 61.1205 184.063 60.6453 183.588C60.1702 183.113 59.9031 182.469 59.9028 181.797Z" stroke="url(#paint107_radial_1_20294)"/>
<path d="M237.285 191.932C237.285 193.332 236.151 194.466 234.751 194.466H119.453C119.12 194.466 118.791 194.401 118.483 194.274C118.176 194.146 117.896 193.96 117.661 193.724C117.426 193.489 117.239 193.21 117.112 192.902C116.984 192.595 116.919 192.265 116.919 191.932C116.919 191.6 116.984 191.27 117.112 190.963C117.239 190.655 117.426 190.376 117.661 190.141C117.896 189.905 118.176 189.719 118.483 189.591C118.791 189.464 119.12 189.398 119.453 189.398H234.751C236.151 189.398 237.285 190.533 237.285 191.932Z" stroke="url(#paint108_radial_1_20294)"/>
<path d="M229.683 202.069C229.683 203.469 228.549 204.603 227.149 204.603H119.453C118.781 204.603 118.136 204.336 117.661 203.86C117.186 203.385 116.919 202.741 116.919 202.069C116.919 201.397 117.186 200.752 117.661 200.277C118.136 199.802 118.781 199.535 119.453 199.535H227.149C228.549 199.535 229.683 200.67 229.683 202.069Z" stroke="url(#paint109_radial_1_20294)"/>
<path d="M222.081 212.204C222.081 213.604 220.947 214.738 219.547 214.738H119.453C118.781 214.738 118.136 214.471 117.661 213.996C117.186 213.521 116.919 212.876 116.919 212.204C116.919 211.532 117.186 210.888 117.661 210.413C118.136 209.937 118.781 209.67 119.453 209.67H219.547C220.947 209.67 222.081 210.805 222.081 212.204Z" stroke="url(#paint110_radial_1_20294)"/>
<path d="M214.479 222.341C214.479 223.741 213.344 224.875 211.945 224.875H119.453C118.781 224.875 118.136 224.608 117.661 224.132C117.186 223.657 116.919 223.013 116.919 222.341C116.919 221.669 117.186 221.024 117.661 220.549C118.136 220.074 118.781 219.807 119.453 219.807H211.945C212.617 219.807 213.261 220.074 213.736 220.549C214.212 221.024 214.479 221.669 214.479 222.341Z" stroke="url(#paint111_radial_1_20294)"/>
<path d="M206.877 232.477C206.877 233.149 206.61 233.794 206.134 234.269C205.659 234.744 205.015 235.011 204.343 235.011H119.453C118.781 235.011 118.136 234.744 117.661 234.269C117.185 233.794 116.918 233.149 116.918 232.477C116.918 231.805 117.185 231.16 117.661 230.685C118.136 230.209 118.781 229.942 119.453 229.942H204.343C205.015 229.943 205.66 230.21 206.135 230.685C206.61 231.161 206.877 231.805 206.877 232.477Z" stroke="url(#paint112_radial_1_20294)"/>
<path d="M199.275 242.614C199.275 243.286 199.008 243.93 198.532 244.405C198.057 244.88 197.413 245.147 196.741 245.148H119.453C118.781 245.148 118.136 244.881 117.661 244.405C117.186 243.93 116.919 243.286 116.919 242.614C116.919 241.942 117.186 241.297 117.661 240.822C118.136 240.347 118.781 240.08 119.453 240.08H196.741C197.413 240.08 198.058 240.347 198.533 240.822C199.008 241.297 199.275 241.942 199.275 242.614Z" stroke="url(#paint113_radial_1_20294)"/>
<path d="M191.673 252.749C191.673 253.421 191.406 254.066 190.93 254.541C190.455 255.016 189.811 255.283 189.139 255.283H119.453C118.781 255.283 118.136 255.016 117.661 254.541C117.186 254.066 116.919 253.421 116.919 252.749C116.919 252.077 117.186 251.433 117.661 250.958C118.136 250.482 118.781 250.215 119.453 250.215H189.139C189.811 250.215 190.456 250.482 190.931 250.958C191.406 251.433 191.673 252.077 191.673 252.749Z" stroke="url(#paint114_radial_1_20294)"/>
<path d="M182.804 262.886C182.804 263.558 182.537 264.202 182.061 264.677C181.586 265.152 180.942 265.419 180.27 265.42H119.453C118.781 265.42 118.136 265.153 117.661 264.677C117.186 264.202 116.919 263.558 116.919 262.886C116.919 262.214 117.186 261.569 117.661 261.094C118.136 260.619 118.781 260.352 119.453 260.352H180.27C180.942 260.352 181.587 260.619 182.062 261.094C182.537 261.569 182.804 262.214 182.804 262.886Z" stroke="url(#paint115_radial_1_20294)"/>
<path d="M175.202 273.021C175.202 274.421 174.067 275.555 172.667 275.555H119.453C118.781 275.555 118.136 275.288 117.661 274.813C117.186 274.338 116.919 273.693 116.919 273.021C116.919 272.349 117.186 271.705 117.661 271.229C118.136 270.754 118.781 270.487 119.453 270.487H172.667C174.067 270.487 175.202 271.622 175.202 273.021Z" stroke="url(#paint116_radial_1_20294)"/>
<path d="M167.599 283.158C167.599 284.558 166.465 285.692 165.065 285.692H119.453C118.781 285.692 118.136 285.425 117.661 284.949C117.186 284.474 116.919 283.83 116.919 283.158C116.919 282.485 117.186 281.841 117.661 281.366C118.136 280.891 118.781 280.624 119.453 280.624H165.065C166.465 280.624 167.599 281.759 167.599 283.158Z" stroke="url(#paint117_radial_1_20294)"/>
<path d="M159.997 293.293C159.997 294.693 158.863 295.827 157.463 295.827H119.453C118.781 295.827 118.136 295.56 117.661 295.085C117.186 294.61 116.919 293.965 116.919 293.293C116.919 292.621 117.186 291.977 117.661 291.501C118.136 291.026 118.781 290.759 119.453 290.759H157.463C158.863 290.759 159.997 291.894 159.997 293.293Z" stroke="url(#paint118_radial_1_20294)"/>
<path d="M152.395 303.43C152.395 304.83 151.261 305.964 149.861 305.964H119.453C118.781 305.964 118.136 305.697 117.661 305.221C117.186 304.746 116.919 304.102 116.919 303.43C116.919 302.757 117.186 302.113 117.661 301.638C118.136 301.162 118.781 300.896 119.453 300.896H149.861C151.261 300.896 152.395 302.031 152.395 303.43Z" stroke="url(#paint119_radial_1_20294)"/>
<path d="M140.992 313.565C140.992 314.965 139.858 316.1 138.458 316.1H129.589C128.917 316.1 128.272 315.833 127.797 315.358C127.322 314.883 127.055 314.238 127.055 313.566C127.055 312.894 127.322 312.249 127.797 311.774C128.272 311.298 128.917 311.031 129.589 311.031H138.458C139.858 311.031 140.992 312.166 140.992 313.565Z" stroke="url(#paint120_radial_1_20294)"/>
<defs>
<linearGradient id="paint0_linear_1_20294" x1="152" y1="-91.9155" x2="152" y2="432.084" gradientUnits="userSpaceOnUse">
<stop/>
<stop offset="0.7" stop-opacity="0"/>
</linearGradient>
<linearGradient id="paint1_linear_1_20294" x1="-60.4996" y1="-91.9155" x2="-59.4996" y2="-91.9155" gradientUnits="userSpaceOnUse">
<stop stop-color="#7877C6"/>
<stop offset="1" stop-color="#6663F6"/>
</linearGradient>
<linearGradient id="paint2_linear_1_20294" x1="-60.4998" y1="-91.9158" x2="-59.4998" y2="-91.9158" gradientUnits="userSpaceOnUse">
<stop stop-color="#7877C6"/>
<stop offset="1" stop-color="#6663F6"/>
</linearGradient>
<linearGradient id="paint3_linear_1_20294" x1="-60.5001" y1="-91.9153" x2="-59.5001" y2="-91.9153" gradientUnits="userSpaceOnUse">
<stop stop-color="#7877C6"/>
<stop offset="1" stop-color="#6663F6"/>
</linearGradient>
<linearGradient id="paint4_linear_1_20294" x1="-60.5" y1="-91.915" x2="-59.5" y2="-91.915" gradientUnits="userSpaceOnUse">
<stop stop-color="#7877C6"/>
<stop offset="1" stop-color="#6663F6"/>
</linearGradient>
<linearGradient id="paint5_linear_1_20294" x1="-60.5001" y1="-91.9154" x2="-59.5001" y2="-91.9154" gradientUnits="userSpaceOnUse">
<stop stop-color="#7877C6"/>
<stop offset="1" stop-color="#6663F6"/>
</linearGradient>
<linearGradient id="paint6_linear_1_20294" x1="-60.5" y1="-91.9175" x2="-59.5" y2="-91.9175" gradientUnits="userSpaceOnUse">
<stop stop-color="#7877C6"/>
<stop offset="1" stop-color="#6663F6"/>
</linearGradient>
<linearGradient id="paint7_linear_1_20294" x1="-60.5002" y1="-91.9151" x2="-59.5002" y2="-91.9151" gradientUnits="userSpaceOnUse">
<stop stop-color="#7877C6"/>
<stop offset="1" stop-color="#6663F6"/>
</linearGradient>
<linearGradient id="paint8_linear_1_20294" x1="-60.5" y1="-91.915" x2="-59.5" y2="-91.915" gradientUnits="userSpaceOnUse">
<stop stop-color="#7877C6"/>
<stop offset="1" stop-color="#6663F6"/>
</linearGradient>
<linearGradient id="paint9_linear_1_20294" x1="-60.5002" y1="-91.9156" x2="-59.5002" y2="-91.9156" gradientUnits="userSpaceOnUse">
<stop stop-color="#7877C6"/>
<stop offset="1" stop-color="#6663F6"/>
</linearGradient>
<linearGradient id="paint10_linear_1_20294" x1="-60.5" y1="-91.9152" x2="-59.5" y2="-91.9152" gradientUnits="userSpaceOnUse">
<stop stop-color="#7877C6"/>
<stop offset="1" stop-color="#6663F6"/>
</linearGradient>
<linearGradient id="paint11_linear_1_20294" x1="-60.4998" y1="-91.9152" x2="-59.4998" y2="-91.9152" gradientUnits="userSpaceOnUse">
<stop stop-color="#7877C6"/>
<stop offset="1" stop-color="#6663F6"/>
</linearGradient>
<linearGradient id="paint12_linear_1_20294" x1="-60.5" y1="-91.915" x2="-59.5" y2="-91.915" gradientUnits="userSpaceOnUse">
<stop stop-color="#7877C6"/>
<stop offset="1" stop-color="#6663F6"/>
</linearGradient>
<linearGradient id="paint13_linear_1_20294" x1="-60.4999" y1="-91.9154" x2="-59.4999" y2="-91.9154" gradientUnits="userSpaceOnUse">
<stop stop-color="#7877C6"/>
<stop offset="1" stop-color="#6663F6"/>
</linearGradient>
<linearGradient id="paint14_linear_1_20294" x1="-60.5001" y1="-91.9152" x2="-59.5001" y2="-91.9152" gradientUnits="userSpaceOnUse">
<stop stop-color="#7877C6"/>
<stop offset="1" stop-color="#6663F6"/>
</linearGradient>
<linearGradient id="paint15_linear_1_20294" x1="-60.5" y1="-91.9152" x2="-59.5" y2="-91.9152" gradientUnits="userSpaceOnUse">
<stop stop-color="#7877C6"/>
<stop offset="1" stop-color="#6663F6"/>
</linearGradient>
<linearGradient id="paint16_linear_1_20294" x1="-60.5" y1="-91.915" x2="-59.5" y2="-91.915" gradientUnits="userSpaceOnUse">
<stop stop-color="#7877C6"/>
<stop offset="1" stop-color="#6663F6"/>
</linearGradient>
<linearGradient id="paint17_linear_1_20294" x1="-60.5" y1="-91.9154" x2="-59.5" y2="-91.9154" gradientUnits="userSpaceOnUse">
<stop stop-color="#7877C6"/>
<stop offset="1" stop-color="#6663F6"/>
</linearGradient>
<linearGradient id="paint18_linear_1_20294" x1="-60.5001" y1="-91.9156" x2="-59.5001" y2="-91.9156" gradientUnits="userSpaceOnUse">
<stop stop-color="#7877C6"/>
<stop offset="1" stop-color="#6663F6"/>
</linearGradient>
<linearGradient id="paint19_linear_1_20294" x1="-60.5" y1="-91.9152" x2="-59.5" y2="-91.9152" gradientUnits="userSpaceOnUse">
<stop stop-color="#7877C6"/>
<stop offset="1" stop-color="#6663F6"/>
</linearGradient>
<linearGradient id="paint20_linear_1_20294" x1="-60.5001" y1="-91.9168" x2="-59.5001" y2="-91.9168" gradientUnits="userSpaceOnUse">
<stop stop-color="#7877C6"/>
<stop offset="1" stop-color="#6663F6"/>
</linearGradient>
<linearGradient id="paint21_linear_1_20294" x1="-60.5001" y1="-91.916" x2="-59.5001" y2="-91.916" gradientUnits="userSpaceOnUse">
<stop stop-color="#7877C6"/>
<stop offset="1" stop-color="#6663F6"/>
</linearGradient>
<linearGradient id="paint22_linear_1_20294" x1="-60.5" y1="-91.9152" x2="-59.5" y2="-91.9152" gradientUnits="userSpaceOnUse">
<stop stop-color="#7877C6"/>
<stop offset="1" stop-color="#6663F6"/>
</linearGradient>
<linearGradient id="paint23_linear_1_20294" x1="-60.5002" y1="-91.9158" x2="-59.5002" y2="-91.9158" gradientUnits="userSpaceOnUse">
<stop stop-color="#7877C6"/>
<stop offset="1" stop-color="#6663F6"/>
</linearGradient>
<linearGradient id="paint24_linear_1_20294" x1="-60.5001" y1="-91.915" x2="-59.5001" y2="-91.915" gradientUnits="userSpaceOnUse">
<stop stop-color="#7877C6"/>
<stop offset="1" stop-color="#6663F6"/>
</linearGradient>
<linearGradient id="paint25_linear_1_20294" x1="-60.5002" y1="-91.9157" x2="-59.5002" y2="-91.9157" gradientUnits="userSpaceOnUse">
<stop stop-color="#7877C6"/>
<stop offset="1" stop-color="#6663F6"/>
</linearGradient>
<linearGradient id="paint26_linear_1_20294" x1="-60.5001" y1="-91.9152" x2="-59.5001" y2="-91.9152" gradientUnits="userSpaceOnUse">
<stop stop-color="#7877C6"/>
<stop offset="1" stop-color="#6663F6"/>
</linearGradient>
<linearGradient id="paint27_linear_1_20294" x1="-60.4998" y1="-91.9152" x2="-59.4998" y2="-91.9152" gradientUnits="userSpaceOnUse">
<stop stop-color="#7877C6"/>
<stop offset="1" stop-color="#6663F6"/>
</linearGradient>
<linearGradient id="paint28_linear_1_20294" x1="-60.4998" y1="-91.915" x2="-59.4998" y2="-91.915" gradientUnits="userSpaceOnUse">
<stop stop-color="#7877C6"/>
<stop offset="1" stop-color="#6663F6"/>
</linearGradient>
<linearGradient id="paint29_linear_1_20294" x1="-60.5" y1="-91.9152" x2="-59.5" y2="-91.9152" gradientUnits="userSpaceOnUse">
<stop stop-color="#7877C6"/>
<stop offset="1" stop-color="#6663F6"/>
</linearGradient>
<linearGradient id="paint30_linear_1_20294" x1="-60.5002" y1="-91.915" x2="-59.5002" y2="-91.915" gradientUnits="userSpaceOnUse">
<stop stop-color="#7877C6"/>
<stop offset="1" stop-color="#6663F6"/>
</linearGradient>
<linearGradient id="paint31_linear_1_20294" x1="-60.4996" y1="-91.9155" x2="-59.4996" y2="-91.9155" gradientUnits="userSpaceOnUse">
<stop stop-color="#7877C6"/>
<stop offset="1" stop-color="#6663F6"/>
</linearGradient>
<linearGradient id="paint32_linear_1_20294" x1="-60.4998" y1="-91.9158" x2="-59.4998" y2="-91.9158" gradientUnits="userSpaceOnUse">
<stop stop-color="#7877C6"/>
<stop offset="1" stop-color="#6663F6"/>
</linearGradient>
<linearGradient id="paint33_linear_1_20294" x1="-60.5001" y1="-91.9153" x2="-59.5001" y2="-91.9153" gradientUnits="userSpaceOnUse">
<stop stop-color="#7877C6"/>
<stop offset="1" stop-color="#6663F6"/>
</linearGradient>
<linearGradient id="paint34_linear_1_20294" x1="-60.5" y1="-91.915" x2="-59.5" y2="-91.915" gradientUnits="userSpaceOnUse">
<stop stop-color="#7877C6"/>
<stop offset="1" stop-color="#6663F6"/>
</linearGradient>
<linearGradient id="paint35_linear_1_20294" x1="-60.5001" y1="-91.9154" x2="-59.5001" y2="-91.9154" gradientUnits="userSpaceOnUse">
<stop stop-color="#7877C6"/>
<stop offset="1" stop-color="#6663F6"/>
</linearGradient>
<linearGradient id="paint36_linear_1_20294" x1="-60.5" y1="-91.9175" x2="-59.5" y2="-91.9175" gradientUnits="userSpaceOnUse">
<stop stop-color="#7877C6"/>
<stop offset="1" stop-color="#6663F6"/>
</linearGradient>
<linearGradient id="paint37_linear_1_20294" x1="-60.5002" y1="-91.9151" x2="-59.5002" y2="-91.9151" gradientUnits="userSpaceOnUse">
<stop stop-color="#7877C6"/>
<stop offset="1" stop-color="#6663F6"/>
</linearGradient>
<linearGradient id="paint38_linear_1_20294" x1="-60.5" y1="-91.915" x2="-59.5" y2="-91.915" gradientUnits="userSpaceOnUse">
<stop stop-color="#7877C6"/>
<stop offset="1" stop-color="#6663F6"/>
</linearGradient>
<linearGradient id="paint39_linear_1_20294" x1="-60.5002" y1="-91.9156" x2="-59.5002" y2="-91.9156" gradientUnits="userSpaceOnUse">
<stop stop-color="#7877C6"/>
<stop offset="1" stop-color="#6663F6"/>
</linearGradient>
<linearGradient id="paint40_linear_1_20294" x1="-60.5" y1="-91.9152" x2="-59.5" y2="-91.9152" gradientUnits="userSpaceOnUse">
<stop stop-color="#7877C6"/>
<stop offset="1" stop-color="#6663F6"/>
</linearGradient>
<linearGradient id="paint41_linear_1_20294" x1="-60.4998" y1="-91.9152" x2="-59.4998" y2="-91.9152" gradientUnits="userSpaceOnUse">
<stop stop-color="#7877C6"/>
<stop offset="1" stop-color="#6663F6"/>
</linearGradient>
<linearGradient id="paint42_linear_1_20294" x1="-60.5" y1="-91.915" x2="-59.5" y2="-91.915" gradientUnits="userSpaceOnUse">
<stop stop-color="#7877C6"/>
<stop offset="1" stop-color="#6663F6"/>
</linearGradient>
<linearGradient id="paint43_linear_1_20294" x1="-60.4999" y1="-91.9154" x2="-59.4999" y2="-91.9154" gradientUnits="userSpaceOnUse">
<stop stop-color="#7877C6"/>
<stop offset="1" stop-color="#6663F6"/>
</linearGradient>
<linearGradient id="paint44_linear_1_20294" x1="-60.5001" y1="-91.9152" x2="-59.5001" y2="-91.9152" gradientUnits="userSpaceOnUse">
<stop stop-color="#7877C6"/>
<stop offset="1" stop-color="#6663F6"/>
</linearGradient>
<linearGradient id="paint45_linear_1_20294" x1="-60.5" y1="-91.9152" x2="-59.5" y2="-91.9152" gradientUnits="userSpaceOnUse">
<stop stop-color="#7877C6"/>
<stop offset="1" stop-color="#6663F6"/>
</linearGradient>
<linearGradient id="paint46_linear_1_20294" x1="-60.5" y1="-91.915" x2="-59.5" y2="-91.915" gradientUnits="userSpaceOnUse">
<stop stop-color="#7877C6"/>
<stop offset="1" stop-color="#6663F6"/>
</linearGradient>
<linearGradient id="paint47_linear_1_20294" x1="-60.5" y1="-91.9154" x2="-59.5" y2="-91.9154" gradientUnits="userSpaceOnUse">
<stop stop-color="#7877C6"/>
<stop offset="1" stop-color="#6663F6"/>
</linearGradient>
<linearGradient id="paint48_linear_1_20294" x1="-60.5001" y1="-91.9156" x2="-59.5001" y2="-91.9156" gradientUnits="userSpaceOnUse">
<stop stop-color="#7877C6"/>
<stop offset="1" stop-color="#6663F6"/>
</linearGradient>
<linearGradient id="paint49_linear_1_20294" x1="-60.5" y1="-91.9152" x2="-59.5" y2="-91.9152" gradientUnits="userSpaceOnUse">
<stop stop-color="#7877C6"/>
<stop offset="1" stop-color="#6663F6"/>
</linearGradient>
<linearGradient id="paint50_linear_1_20294" x1="-60.5001" y1="-91.9168" x2="-59.5001" y2="-91.9168" gradientUnits="userSpaceOnUse">
<stop stop-color="#7877C6"/>
<stop offset="1" stop-color="#6663F6"/>
</linearGradient>
<linearGradient id="paint51_linear_1_20294" x1="-60.5001" y1="-91.916" x2="-59.5001" y2="-91.916" gradientUnits="userSpaceOnUse">
<stop stop-color="#7877C6"/>
<stop offset="1" stop-color="#6663F6"/>
</linearGradient>
<linearGradient id="paint52_linear_1_20294" x1="-60.5" y1="-91.9152" x2="-59.5" y2="-91.9152" gradientUnits="userSpaceOnUse">
<stop stop-color="#7877C6"/>
<stop offset="1" stop-color="#6663F6"/>
</linearGradient>
<linearGradient id="paint53_linear_1_20294" x1="-60.5002" y1="-91.9158" x2="-59.5002" y2="-91.9158" gradientUnits="userSpaceOnUse">
<stop stop-color="#7877C6"/>
<stop offset="1" stop-color="#6663F6"/>
</linearGradient>
<linearGradient id="paint54_linear_1_20294" x1="-60.5001" y1="-91.915" x2="-59.5001" y2="-91.915" gradientUnits="userSpaceOnUse">
<stop stop-color="#7877C6"/>
<stop offset="1" stop-color="#6663F6"/>
</linearGradient>
<linearGradient id="paint55_linear_1_20294" x1="-60.5002" y1="-91.9157" x2="-59.5002" y2="-91.9157" gradientUnits="userSpaceOnUse">
<stop stop-color="#7877C6"/>
<stop offset="1" stop-color="#6663F6"/>
</linearGradient>
<linearGradient id="paint56_linear_1_20294" x1="-60.5001" y1="-91.9152" x2="-59.5001" y2="-91.9152" gradientUnits="userSpaceOnUse">
<stop stop-color="#7877C6"/>
<stop offset="1" stop-color="#6663F6"/>
</linearGradient>
<linearGradient id="paint57_linear_1_20294" x1="-60.4998" y1="-91.9152" x2="-59.4998" y2="-91.9152" gradientUnits="userSpaceOnUse">
<stop stop-color="#7877C6"/>
<stop offset="1" stop-color="#6663F6"/>
</linearGradient>
<linearGradient id="paint58_linear_1_20294" x1="-60.4998" y1="-91.915" x2="-59.4998" y2="-91.915" gradientUnits="userSpaceOnUse">
<stop stop-color="#7877C6"/>
<stop offset="1" stop-color="#6663F6"/>
</linearGradient>
<linearGradient id="paint59_linear_1_20294" x1="-60.5" y1="-91.9152" x2="-59.5" y2="-91.9152" gradientUnits="userSpaceOnUse">
<stop stop-color="#7877C6"/>
<stop offset="1" stop-color="#6663F6"/>
</linearGradient>
<linearGradient id="paint60_linear_1_20294" x1="-60.5002" y1="-91.915" x2="-59.5002" y2="-91.915" gradientUnits="userSpaceOnUse">
<stop stop-color="#7877C6"/>
<stop offset="1" stop-color="#6663F6"/>
</linearGradient>
<linearGradient id="paint61_linear_1_20294" x1="-60.4996" y1="-91.9155" x2="-59.4996" y2="-91.9155" gradientUnits="userSpaceOnUse">
<stop stop-color="#7877C6"/>
<stop offset="1" stop-color="#6663F6"/>
</linearGradient>
<linearGradient id="paint62_linear_1_20294" x1="-60.4998" y1="-91.9158" x2="-59.4998" y2="-91.9158" gradientUnits="userSpaceOnUse">
<stop stop-color="#7877C6"/>
<stop offset="1" stop-color="#6663F6"/>
</linearGradient>
<linearGradient id="paint63_linear_1_20294" x1="-60.5001" y1="-91.9153" x2="-59.5001" y2="-91.9153" gradientUnits="userSpaceOnUse">
<stop stop-color="#7877C6"/>
<stop offset="1" stop-color="#6663F6"/>
</linearGradient>
<linearGradient id="paint64_linear_1_20294" x1="-60.5" y1="-91.915" x2="-59.5" y2="-91.915" gradientUnits="userSpaceOnUse">
<stop stop-color="#7877C6"/>
<stop offset="1" stop-color="#6663F6"/>
</linearGradient>
<linearGradient id="paint65_linear_1_20294" x1="-60.5001" y1="-91.9154" x2="-59.5001" y2="-91.9154" gradientUnits="userSpaceOnUse">
<stop stop-color="#7877C6"/>
<stop offset="1" stop-color="#6663F6"/>
</linearGradient>
<linearGradient id="paint66_linear_1_20294" x1="-60.5" y1="-91.9175" x2="-59.5" y2="-91.9175" gradientUnits="userSpaceOnUse">
<stop stop-color="#7877C6"/>
<stop offset="1" stop-color="#6663F6"/>
</linearGradient>
<linearGradient id="paint67_linear_1_20294" x1="-60.5002" y1="-91.9151" x2="-59.5002" y2="-91.9151" gradientUnits="userSpaceOnUse">
<stop stop-color="#7877C6"/>
<stop offset="1" stop-color="#6663F6"/>
</linearGradient>
<linearGradient id="paint68_linear_1_20294" x1="-60.5" y1="-91.915" x2="-59.5" y2="-91.915" gradientUnits="userSpaceOnUse">
<stop stop-color="#7877C6"/>
<stop offset="1" stop-color="#6663F6"/>
</linearGradient>
<linearGradient id="paint69_linear_1_20294" x1="-60.5002" y1="-91.9156" x2="-59.5002" y2="-91.9156" gradientUnits="userSpaceOnUse">
<stop stop-color="#7877C6"/>
<stop offset="1" stop-color="#6663F6"/>
</linearGradient>
<linearGradient id="paint70_linear_1_20294" x1="-60.5" y1="-91.9152" x2="-59.5" y2="-91.9152" gradientUnits="userSpaceOnUse">
<stop stop-color="#7877C6"/>
<stop offset="1" stop-color="#6663F6"/>
</linearGradient>
<linearGradient id="paint71_linear_1_20294" x1="-60.4998" y1="-91.9152" x2="-59.4998" y2="-91.9152" gradientUnits="userSpaceOnUse">
<stop stop-color="#7877C6"/>
<stop offset="1" stop-color="#6663F6"/>
</linearGradient>
<linearGradient id="paint72_linear_1_20294" x1="-60.5" y1="-91.915" x2="-59.5" y2="-91.915" gradientUnits="userSpaceOnUse">
<stop stop-color="#7877C6"/>
<stop offset="1" stop-color="#6663F6"/>
</linearGradient>
<linearGradient id="paint73_linear_1_20294" x1="-60.4999" y1="-91.9154" x2="-59.4999" y2="-91.9154" gradientUnits="userSpaceOnUse">
<stop stop-color="#7877C6"/>
<stop offset="1" stop-color="#6663F6"/>
</linearGradient>
<linearGradient id="paint74_linear_1_20294" x1="-60.5001" y1="-91.9152" x2="-59.5001" y2="-91.9152" gradientUnits="userSpaceOnUse">
<stop stop-color="#7877C6"/>
<stop offset="1" stop-color="#6663F6"/>
</linearGradient>
<linearGradient id="paint75_linear_1_20294" x1="-60.5" y1="-91.9152" x2="-59.5" y2="-91.9152" gradientUnits="userSpaceOnUse">
<stop stop-color="#7877C6"/>
<stop offset="1" stop-color="#6663F6"/>
</linearGradient>
<linearGradient id="paint76_linear_1_20294" x1="-60.5" y1="-91.915" x2="-59.5" y2="-91.915" gradientUnits="userSpaceOnUse">
<stop stop-color="#7877C6"/>
<stop offset="1" stop-color="#6663F6"/>
</linearGradient>
<linearGradient id="paint77_linear_1_20294" x1="-60.5" y1="-91.9154" x2="-59.5" y2="-91.9154" gradientUnits="userSpaceOnUse">
<stop stop-color="#7877C6"/>
<stop offset="1" stop-color="#6663F6"/>
</linearGradient>
<linearGradient id="paint78_linear_1_20294" x1="-60.5001" y1="-91.9156" x2="-59.5001" y2="-91.9156" gradientUnits="userSpaceOnUse">
<stop stop-color="#7877C6"/>
<stop offset="1" stop-color="#6663F6"/>
</linearGradient>
<linearGradient id="paint79_linear_1_20294" x1="-60.5" y1="-91.9152" x2="-59.5" y2="-91.9152" gradientUnits="userSpaceOnUse">
<stop stop-color="#7877C6"/>
<stop offset="1" stop-color="#6663F6"/>
</linearGradient>
<linearGradient id="paint80_linear_1_20294" x1="-60.5001" y1="-91.9168" x2="-59.5001" y2="-91.9168" gradientUnits="userSpaceOnUse">
<stop stop-color="#7877C6"/>
<stop offset="1" stop-color="#6663F6"/>
</linearGradient>
<linearGradient id="paint81_linear_1_20294" x1="-60.5001" y1="-91.916" x2="-59.5001" y2="-91.916" gradientUnits="userSpaceOnUse">
<stop stop-color="#7877C6"/>
<stop offset="1" stop-color="#6663F6"/>
</linearGradient>
<linearGradient id="paint82_linear_1_20294" x1="-60.5" y1="-91.9152" x2="-59.5" y2="-91.9152" gradientUnits="userSpaceOnUse">
<stop stop-color="#7877C6"/>
<stop offset="1" stop-color="#6663F6"/>
</linearGradient>
<linearGradient id="paint83_linear_1_20294" x1="-60.5002" y1="-91.9158" x2="-59.5002" y2="-91.9158" gradientUnits="userSpaceOnUse">
<stop stop-color="#7877C6"/>
<stop offset="1" stop-color="#6663F6"/>
</linearGradient>
<linearGradient id="paint84_linear_1_20294" x1="-60.5001" y1="-91.915" x2="-59.5001" y2="-91.915" gradientUnits="userSpaceOnUse">
<stop stop-color="#7877C6"/>
<stop offset="1" stop-color="#6663F6"/>
</linearGradient>
<linearGradient id="paint85_linear_1_20294" x1="-60.5002" y1="-91.9157" x2="-59.5002" y2="-91.9157" gradientUnits="userSpaceOnUse">
<stop stop-color="#7877C6"/>
<stop offset="1" stop-color="#6663F6"/>
</linearGradient>
<linearGradient id="paint86_linear_1_20294" x1="-60.5001" y1="-91.9152" x2="-59.5001" y2="-91.9152" gradientUnits="userSpaceOnUse">
<stop stop-color="#7877C6"/>
<stop offset="1" stop-color="#6663F6"/>
</linearGradient>
<linearGradient id="paint87_linear_1_20294" x1="-60.4998" y1="-91.9152" x2="-59.4998" y2="-91.9152" gradientUnits="userSpaceOnUse">
<stop stop-color="#7877C6"/>
<stop offset="1" stop-color="#6663F6"/>
</linearGradient>
<linearGradient id="paint88_linear_1_20294" x1="-60.4998" y1="-91.915" x2="-59.4998" y2="-91.915" gradientUnits="userSpaceOnUse">
<stop stop-color="#7877C6"/>
<stop offset="1" stop-color="#6663F6"/>
</linearGradient>
<linearGradient id="paint89_linear_1_20294" x1="-60.5" y1="-91.9152" x2="-59.5" y2="-91.9152" gradientUnits="userSpaceOnUse">
<stop stop-color="#7877C6"/>
<stop offset="1" stop-color="#6663F6"/>
</linearGradient>
<linearGradient id="paint90_linear_1_20294" x1="-60.5002" y1="-91.915" x2="-59.5002" y2="-91.915" gradientUnits="userSpaceOnUse">
<stop stop-color="#7877C6"/>
<stop offset="1" stop-color="#6663F6"/>
</linearGradient>
<radialGradient id="paint91_radial_1_20294" cx="0" cy="0" r="1" gradientUnits="userSpaceOnUse" gradientTransform="translate(151.762 48.3465) rotate(90) scale(288.739 199.426)">
<stop stop-color="white"/>
<stop offset="1" stop-color="white" stop-opacity="0"/>
</radialGradient>
<radialGradient id="paint92_radial_1_20294" cx="0" cy="0" r="1" gradientUnits="userSpaceOnUse" gradientTransform="translate(151.762 48.3467) rotate(90) scale(288.739 199.426)">
<stop stop-color="white"/>
<stop offset="1" stop-color="white" stop-opacity="0"/>
</radialGradient>
<radialGradient id="paint93_radial_1_20294" cx="0" cy="0" r="1" gradientUnits="userSpaceOnUse" gradientTransform="translate(151.762 48.3464) rotate(90) scale(288.739 199.426)">
<stop stop-color="white"/>
<stop offset="1" stop-color="white" stop-opacity="0"/>
</radialGradient>
<radialGradient id="paint94_radial_1_20294" cx="0" cy="0" r="1" gradientUnits="userSpaceOnUse" gradientTransform="translate(151.762 48.3467) rotate(90) scale(288.739 199.426)">
<stop stop-color="white"/>
<stop offset="1" stop-color="white" stop-opacity="0"/>
</radialGradient>
<radialGradient id="paint95_radial_1_20294" cx="0" cy="0" r="1" gradientUnits="userSpaceOnUse" gradientTransform="translate(151.762 48.3464) rotate(90) scale(288.739 199.426)">
<stop stop-color="white"/>
<stop offset="1" stop-color="white" stop-opacity="0"/>
</radialGradient>
<radialGradient id="paint96_radial_1_20294" cx="0" cy="0" r="1" gradientUnits="userSpaceOnUse" gradientTransform="translate(151.762 48.3466) rotate(90) scale(288.739 199.426)">
<stop stop-color="white"/>
<stop offset="1" stop-color="white" stop-opacity="0"/>
</radialGradient>
<radialGradient id="paint97_radial_1_20294" cx="0" cy="0" r="1" gradientUnits="userSpaceOnUse" gradientTransform="translate(151.762 48.3464) rotate(90) scale(288.739 199.426)">
<stop stop-color="white"/>
<stop offset="1" stop-color="white" stop-opacity="0"/>
</radialGradient>
<radialGradient id="paint98_radial_1_20294" cx="0" cy="0" r="1" gradientUnits="userSpaceOnUse" gradientTransform="translate(151.762 48.3467) rotate(90) scale(288.739 199.426)">
<stop stop-color="white"/>
<stop offset="1" stop-color="white" stop-opacity="0"/>
</radialGradient>
<radialGradient id="paint99_radial_1_20294" cx="0" cy="0" r="1" gradientUnits="userSpaceOnUse" gradientTransform="translate(151.762 48.3464) rotate(90) scale(288.739 199.426)">
<stop stop-color="white"/>
<stop offset="1" stop-color="white" stop-opacity="0"/>
</radialGradient>
<radialGradient id="paint100_radial_1_20294" cx="0" cy="0" r="1" gradientUnits="userSpaceOnUse" gradientTransform="translate(151.762 48.3466) rotate(90) scale(288.739 199.426)">
<stop stop-color="white"/>
<stop offset="1" stop-color="white" stop-opacity="0"/>
</radialGradient>
<radialGradient id="paint101_radial_1_20294" cx="0" cy="0" r="1" gradientUnits="userSpaceOnUse" gradientTransform="translate(151.762 48.3462) rotate(90) scale(288.739 199.426)">
<stop stop-color="white"/>
<stop offset="1" stop-color="white" stop-opacity="0"/>
</radialGradient>
<radialGradient id="paint102_radial_1_20294" cx="0" cy="0" r="1" gradientUnits="userSpaceOnUse" gradientTransform="translate(151.762 48.3464) rotate(90) scale(288.739 199.426)">
<stop stop-color="white"/>
<stop offset="1" stop-color="white" stop-opacity="0"/>
</radialGradient>
<radialGradient id="paint103_radial_1_20294" cx="0" cy="0" r="1" gradientUnits="userSpaceOnUse" gradientTransform="translate(151.762 48.3463) rotate(90) scale(288.739 199.426)">
<stop stop-color="white"/>
<stop offset="1" stop-color="white" stop-opacity="0"/>
</radialGradient>
<radialGradient id="paint104_radial_1_20294" cx="0" cy="0" r="1" gradientUnits="userSpaceOnUse" gradientTransform="translate(151.762 48.3466) rotate(90) scale(288.739 199.426)">
<stop stop-color="white"/>
<stop offset="1" stop-color="white" stop-opacity="0"/>
</radialGradient>
<radialGradient id="paint105_radial_1_20294" cx="0" cy="0" r="1" gradientUnits="userSpaceOnUse" gradientTransform="translate(151.762 48.3469) rotate(90) scale(288.739 199.426)">
<stop stop-color="white"/>
<stop offset="1" stop-color="white" stop-opacity="0"/>
</radialGradient>
<radialGradient id="paint106_radial_1_20294" cx="0" cy="0" r="1" gradientUnits="userSpaceOnUse" gradientTransform="translate(151.762 48.3466) rotate(90) scale(288.739 199.426)">
<stop stop-color="white"/>
<stop offset="1" stop-color="white" stop-opacity="0"/>
</radialGradient>
<radialGradient id="paint107_radial_1_20294" cx="0" cy="0" r="1" gradientUnits="userSpaceOnUse" gradientTransform="translate(151.762 48.3469) rotate(90) scale(288.739 199.426)">
<stop stop-color="white"/>
<stop offset="1" stop-color="white" stop-opacity="0"/>
</radialGradient>
<radialGradient id="paint108_radial_1_20294" cx="0" cy="0" r="1" gradientUnits="userSpaceOnUse" gradientTransform="translate(151.762 48.3466) rotate(90) scale(288.739 199.426)">
<stop stop-color="white"/>
<stop offset="1" stop-color="white" stop-opacity="0"/>
</radialGradient>
<radialGradient id="paint109_radial_1_20294" cx="0" cy="0" r="1" gradientUnits="userSpaceOnUse" gradientTransform="translate(151.762 48.3469) rotate(90) scale(288.739 199.426)">
<stop stop-color="white"/>
<stop offset="1" stop-color="white" stop-opacity="0"/>
</radialGradient>
<radialGradient id="paint110_radial_1_20294" cx="0" cy="0" r="1" gradientUnits="userSpaceOnUse" gradientTransform="translate(151.762 48.3466) rotate(90) scale(288.739 199.426)">
<stop stop-color="white"/>
<stop offset="1" stop-color="white" stop-opacity="0"/>
</radialGradient>
<radialGradient id="paint111_radial_1_20294" cx="0" cy="0" r="1" gradientUnits="userSpaceOnUse" gradientTransform="translate(151.762 48.3459) rotate(90) scale(288.74 199.426)">
<stop stop-color="white"/>
<stop offset="1" stop-color="white" stop-opacity="0"/>
</radialGradient>
<radialGradient id="paint112_radial_1_20294" cx="0" cy="0" r="1" gradientUnits="userSpaceOnUse" gradientTransform="translate(151.762 48.3464) rotate(90) scale(288.739 199.426)">
<stop stop-color="white"/>
<stop offset="1" stop-color="white" stop-opacity="0"/>
</radialGradient>
<radialGradient id="paint113_radial_1_20294" cx="0" cy="0" r="1" gradientUnits="userSpaceOnUse" gradientTransform="translate(151.762 48.3469) rotate(90) scale(288.739 199.426)">
<stop stop-color="white"/>
<stop offset="1" stop-color="white" stop-opacity="0"/>
</radialGradient>
<radialGradient id="paint114_radial_1_20294" cx="0" cy="0" r="1" gradientUnits="userSpaceOnUse" gradientTransform="translate(151.762 48.3466) rotate(90) scale(288.739 199.426)">
<stop stop-color="white"/>
<stop offset="1" stop-color="white" stop-opacity="0"/>
</radialGradient>
<radialGradient id="paint115_radial_1_20294" cx="0" cy="0" r="1" gradientUnits="userSpaceOnUse" gradientTransform="translate(151.762 48.3468) rotate(90) scale(288.739 199.426)">
<stop stop-color="white"/>
<stop offset="1" stop-color="white" stop-opacity="0"/>
</radialGradient>
<radialGradient id="paint116_radial_1_20294" cx="0" cy="0" r="1" gradientUnits="userSpaceOnUse" gradientTransform="translate(151.762 48.3466) rotate(90) scale(288.739 199.426)">
<stop stop-color="white"/>
<stop offset="1" stop-color="white" stop-opacity="0"/>
</radialGradient>
<radialGradient id="paint117_radial_1_20294" cx="0" cy="0" r="1" gradientUnits="userSpaceOnUse" gradientTransform="translate(151.762 48.3469) rotate(90) scale(288.739 199.426)">
<stop stop-color="white"/>
<stop offset="1" stop-color="white" stop-opacity="0"/>
</radialGradient>
<radialGradient id="paint118_radial_1_20294" cx="0" cy="0" r="1" gradientUnits="userSpaceOnUse" gradientTransform="translate(151.762 48.3451) rotate(90) scale(288.74 199.426)">
<stop stop-color="white"/>
<stop offset="1" stop-color="white" stop-opacity="0"/>
</radialGradient>
<radialGradient id="paint119_radial_1_20294" cx="0" cy="0" r="1" gradientUnits="userSpaceOnUse" gradientTransform="translate(151.762 48.3468) rotate(90) scale(288.739 199.426)">
<stop stop-color="white"/>
<stop offset="1" stop-color="white" stop-opacity="0"/>
</radialGradient>
<radialGradient id="paint120_radial_1_20294" cx="0" cy="0" r="1" gradientUnits="userSpaceOnUse" gradientTransform="translate(151.762 48.3462) rotate(90) scale(288.739 199.426)">
<stop stop-color="white"/>
<stop offset="1" stop-color="white" stop-opacity="0"/>
</radialGradient>
</defs>
</svg>
